<svg width="22" height="22" viewBox="0 0 22 22" fill="none" xmlns="http://www.w3.org/2000/svg">
<path d="M0 11C0 4.92487 4.92487 0 11 0C17.0751 0 22 4.92487 22 11C22 17.0751 17.0751 22 11 22C4.92487 22 0 17.0751 0 11Z" fill="#E6007A"/>
<path d="M10.9999 6.54598C12.5281 6.54598 13.767 5.82515 13.767 4.93596C13.767 4.04676 12.5281 3.32593 10.9999 3.32593C9.47175 3.32593 8.23291 4.04676 8.23291 4.93596C8.23291 5.82515 9.47175 6.54598 10.9999 6.54598Z" fill="white"/>
<path d="M10.9999 18.6741C12.5281 18.6741 13.767 17.9532 13.767 17.064C13.767 16.1748 12.5281 15.454 10.9999 15.454C9.47175 15.454 8.23291 16.1748 8.23291 17.064C8.23291 17.9532 9.47175 18.6741 10.9999 18.6741Z" fill="white"/>
<path d="M7.14287 8.77337C7.90696 7.44992 7.90212 6.01664 7.13206 5.57204C6.36199 5.12744 5.11831 5.83989 4.35422 7.16334C3.59012 8.48679 3.59496 9.92008 4.36503 10.3647C5.13509 10.8093 6.37877 10.0968 7.14287 8.77337Z" fill="white"/>
<path d="M17.6458 14.8374C18.4099 13.5139 18.4051 12.0807 17.635 11.6361C16.8649 11.1915 15.6212 11.9039 14.8571 13.2274C14.0931 14.5508 14.0979 15.9841 14.868 16.4287C15.638 16.8733 16.8817 16.1608 17.6458 14.8374Z" fill="white"/>
<path d="M7.13206 16.4283C7.90212 15.9837 7.90696 14.5504 7.14287 13.227C6.37878 11.9035 5.13509 11.1911 4.36503 11.6357C3.59496 12.0803 3.59012 13.5135 4.35422 14.837C5.11831 16.1604 6.36199 16.8729 7.13206 16.4283Z" fill="white"/>
<path d="M17.635 10.3644C18.4051 9.91982 18.4099 8.48654 17.6458 7.16309C16.8817 5.83964 15.638 5.12719 14.868 5.57179C14.0979 6.01638 14.0931 7.44967 14.8571 8.77312C15.6212 10.0966 16.8649 10.809 17.635 10.3644Z" fill="white"/>
</svg>
