<svg t="1647157841712" class="icon" viewBox="0 0 1024 1024" version="1.1" xmlns="http://www.w3.org/2000/svg" p-id="2932" width="32" height="32"><path d="M512 934.4c-233.301333 0-422.4-189.098667-422.4-422.4S278.698667 89.6 512 89.6s422.4 189.098667 422.4 422.4-189.098667 422.4-422.4 422.4z m0-76.8a345.6 345.6 0 1 0 0-691.2 345.6 345.6 0 0 0 0 691.2z m188.16-505.770667a38.4 38.4 0 1 1 54.272 54.272l-271.530667 271.530667a38.4 38.4 0 0 1-54.272 0L292.864 541.866667a38.4 38.4 0 1 1 54.272-54.272l108.629333 108.586666 244.394667-244.352z" p-id="2933" fill="#1afa29"></path></svg>
