<svg width="219" height="86" viewBox="0 0 219 86" fill="none" xmlns="http://www.w3.org/2000/svg">
<path d="M99 65.203V20.9717C99.0051 20.9155 99.0304 20.8632 99.0712 20.8243C99.112 20.7855 99.1655 20.7628 99.2218 20.7604H127.326C127.453 20.7604 127.558 20.866 127.558 20.9928V26.622C127.558 26.7488 127.453 26.8544 127.326 26.8544H105.78V39.8872H124.105C124.231 39.8872 124.337 39.9928 124.337 40.1196V45.6855C124.337 45.8122 124.231 45.9178 124.105 45.9178H105.78V59.3414H127.326C127.453 59.3414 127.558 59.447 127.558 59.5738V65.203C127.558 65.3298 127.453 65.4354 127.326 65.4354H99.2218C99.162 65.4327 99.1056 65.407 99.0643 65.3637C99.023 65.3204 98.9999 65.2629 99 65.203V65.203ZM168.885 65.3192L148.322 34.0045V65.1925C148.322 65.3192 148.216 65.4248 148.09 65.4248H141.753C141.691 65.4248 141.632 65.4003 141.588 65.3568C141.545 65.3132 141.52 65.2541 141.52 65.1925V21.0033C141.52 20.8766 141.626 20.771 141.753 20.771H147.614C147.69 20.771 147.762 20.8132 147.804 20.8766L168.389 52.1279V21.0033C168.389 20.8766 168.494 20.771 168.621 20.771H174.958C175.085 20.771 175.19 20.8766 175.19 21.0033V65.1925C175.19 65.3192 175.085 65.4248 174.958 65.4248H169.075C169.037 65.4241 169 65.414 168.967 65.3956C168.934 65.3772 168.906 65.351 168.885 65.3192V65.3192ZM195.922 56.8489V58.9612C198.637 59.5526 201.404 59.8758 204.182 59.9329C206.927 59.8758 209.661 59.5548 212.346 58.9718V48.9595L189.343 40.9222C189.3 40.9056 189.263 40.8766 189.237 40.839C189.21 40.8014 189.196 40.7569 189.195 40.711V22.3235C189.191 22.2766 189.203 22.2296 189.23 22.191C189.257 22.1524 189.297 22.1245 189.343 22.1123C194.138 20.7726 199.087 20.0625 204.065 20C209.065 20.0655 214.035 20.7752 218.851 22.1123C218.897 22.1245 218.937 22.1524 218.964 22.191C218.991 22.2296 219.003 22.2766 218.999 22.3235V29.2624C218.999 29.3891 218.894 29.4947 218.767 29.4947H212.546C212.485 29.4947 212.425 29.4703 212.382 29.4267C212.338 29.3831 212.314 29.324 212.314 29.2624V27.1501C209.598 26.5646 206.832 26.2427 204.055 26.189C201.309 26.2431 198.575 26.5614 195.891 27.1395L195.922 36.6026L218.841 44.6293C218.884 44.646 218.92 44.6749 218.947 44.7125C218.973 44.7501 218.988 44.7947 218.989 44.8405V63.7984C218.993 63.8453 218.98 63.8922 218.953 63.9309C218.926 63.9695 218.886 63.9974 218.841 64.0096C214.046 65.3491 209.097 66.0591 204.118 66.1219C199.119 66.0557 194.15 65.3458 189.332 64.0096C189.287 63.9974 189.247 63.9695 189.22 63.9309C189.193 63.8922 189.18 63.8453 189.184 63.7984V56.8489C189.184 56.7222 189.29 56.6166 189.417 56.6166H195.627C195.662 56.6065 195.699 56.605 195.735 56.6121C195.771 56.6192 195.805 56.6347 195.834 56.6574C195.863 56.68 195.886 56.7092 195.901 56.7425C195.917 56.7758 195.924 56.8123 195.922 56.8489Z" fill="#000"/>
<g clip-path="url(#clip0_580_29643)">
<path d="M9.8527 34.7931C10.7021 36.6098 12.8044 40.2006 12.8044 40.2006L37.1085 0L13.3884 16.5732C11.975 17.5166 10.8154 18.7936 10.012 20.2915C8.93163 22.5513 8.35765 25.0199 8.33014 27.5247C8.30263 30.0295 8.82226 32.5101 9.8527 34.7931V34.7931Z" fill="url(#paint0_linear_580_29643)"/>
<path d="M0.222838 48.0304C0.490652 51.8758 1.57649 55.6195 3.40766 59.0109C5.23882 62.4024 7.77303 65.3632 10.8406 67.6951L37.0771 86C37.0771 86 20.662 62.3301 6.81647 38.777C5.41475 36.2887 4.47242 33.568 4.03461 30.7454C3.8408 29.4672 3.8408 28.1671 4.03461 26.8889C3.67361 27.5582 2.97284 28.9287 2.97284 28.9287C1.56895 31.7936 0.612835 34.857 0.137896 38.0121C-0.135476 41.3473 -0.107046 44.7003 0.222838 48.0304V48.0304Z" fill="#A0A8D4"/>
<path d="M67.1572 51.2069C66.3077 49.3902 64.2054 45.7994 64.2054 45.7994L39.9014 86L63.6214 69.4374C65.0348 68.494 66.1944 67.217 66.9979 65.7191C68.0798 63.4579 68.6547 60.9874 68.6822 58.4806C68.7097 55.9738 68.1892 53.4913 67.1572 51.2069V51.2069Z" fill="url(#paint1_linear_580_29643)"/>
<path d="M76.7878 37.9696C76.52 34.1242 75.4342 30.3805 73.603 26.9891C71.7719 23.5976 69.2376 20.6368 66.1701 18.3049L39.9336 0C39.9336 0 56.338 23.6699 70.1942 47.223C71.5922 49.7121 72.5309 52.4327 72.9654 55.2546C73.1593 56.5328 73.1593 57.8329 72.9654 59.1111C73.3265 58.4418 74.0272 57.0713 74.0272 57.0713C75.4311 54.2065 76.3872 51.143 76.8622 47.9879C77.1391 44.653 77.1142 41.3 76.7878 37.9696Z" fill="#A0A8D4"/>
<path style="mix-blend-mode:color" d="M10.0124 20.2915C10.8159 18.7936 11.9755 17.5166 13.3889 16.5732L37.1089 0L12.8049 40.2112C12.8049 40.2112 10.6813 36.6204 9.85315 34.8037C8.8211 32.5193 8.30061 30.0368 8.32812 27.53C8.35563 25.0232 8.93048 22.5527 10.0124 20.2915V20.2915ZM0.222838 48.0304C0.490652 51.8758 1.57649 55.6195 3.40766 59.0109C5.23882 62.4024 7.77303 65.3632 10.8406 67.6951L37.0771 86C37.0771 86 20.662 62.3301 6.81647 38.777C5.41475 36.2887 4.47242 33.568 4.03461 30.7454C3.8408 29.4672 3.8408 28.1671 4.03461 26.8889C3.67361 27.5582 2.97284 28.9287 2.97284 28.9287C1.56895 31.7936 0.612835 34.857 0.137896 38.0121C-0.135476 41.3473 -0.107046 44.7003 0.222838 48.0304V48.0304ZM67.1147 51.2175C66.2653 49.4009 64.163 45.81 64.163 45.81L39.9014 86L63.6215 69.4374C65.0349 68.494 66.1945 67.217 66.9979 65.7191C68.0799 63.4579 68.6547 60.9874 68.6822 58.4806C68.7097 55.9738 68.1892 53.4913 67.1572 51.2069L67.1147 51.2175ZM76.745 37.9802C76.4772 34.1349 75.3914 30.3911 73.5602 26.9997C71.7291 23.6083 69.1948 20.6475 66.1273 18.3155L39.9333 0C39.9333 0 56.3377 23.6699 70.1939 47.223C71.5919 49.7121 72.5306 52.4327 72.9651 55.2546C73.1589 56.5328 73.1589 57.8329 72.9651 59.1111C73.3261 58.4418 74.0269 57.0713 74.0269 57.0713C75.4308 54.2065 76.3869 51.143 76.8618 47.9879C77.1387 44.653 77.1139 41.3 76.7875 37.9696L76.745 37.9802Z" fill="url(#paint2_linear_580_29643)"/>
</g>
<defs>
<linearGradient id="paint0_linear_580_29643" x1="38.1703" y1="0.988017" x2="6.95598" y2="34.8071" gradientUnits="userSpaceOnUse">
<stop offset="0.58" stop-color="#A0A8D4"/>
<stop offset="0.73" stop-color="#8791C7"/>
<stop offset="0.91" stop-color="#6470B4"/>
</linearGradient>
<linearGradient id="paint1_linear_580_29643" x1="1265.14" y1="3328.58" x2="2413.3" y2="2437.75" gradientUnits="userSpaceOnUse">
<stop offset="0.58" stop-color="#A0A8D4"/>
<stop offset="0.73" stop-color="#8791C7"/>
<stop offset="0.91" stop-color="#6470B4"/>
</linearGradient>
<linearGradient id="paint2_linear_580_29643" x1="38.4999" y1="-0.424954" x2="38.4999" y2="86.2656" gradientUnits="userSpaceOnUse">
<stop stop-color="#513EFF"/>
<stop offset="0.18" stop-color="#5157FF"/>
<stop offset="0.57" stop-color="#5298FF"/>
<stop offset="1" stop-color="#52E5FF"/>
</linearGradient>
<clipPath id="clip0_580_29643">
<rect width="77" height="86" fill="white"/>
</clipPath>
</defs>
</svg>
