<svg width="22" height="23" viewBox="0 0 22 23" fill="none" xmlns="http://www.w3.org/2000/svg">
<path d="M0 11.936C0 5.8609 4.92487 0.936035 11 0.936035C17.0751 0.936035 22 5.8609 22 11.936C22 18.0112 17.0751 22.936 11 22.936C4.92487 22.936 0 18.0112 0 11.936Z" fill="#627EEA"/>
<path d="M11.3438 3.68604V9.78416L16.4979 12.0873L11.3438 3.68604Z" fill="white" fill-opacity="0.602"/>
<path d="M11.3424 3.68604L6.1875 12.0873L11.3424 9.78416V3.68604Z" fill="white"/>
<path d="M11.3438 16.0388V20.1823L16.5014 13.0468L11.3438 16.0388Z" fill="white" fill-opacity="0.602"/>
<path d="M11.3424 20.1826V16.0384L6.1875 13.0471L11.3424 20.1826Z" fill="white"/>
<path d="M11.3438 15.0799L16.4979 12.0872L11.3438 9.78546V15.0799Z" fill="white" fill-opacity="0.2"/>
<path d="M6.1875 12.0865L11.3424 15.0792V9.78473L6.1875 12.0865Z" fill="white" fill-opacity="0.602"/>
</svg>
