<svg width="22" height="23" viewBox="0 0 22 23" fill="none" xmlns="http://www.w3.org/2000/svg">
<path d="M0 11.936C0 5.8609 4.92487 0.936035 11 0.936035C17.0751 0.936035 22 5.8609 22 11.936C22 18.0112 17.0751 22.936 11 22.936C4.92487 22.936 0 18.0112 0 11.936Z" fill="white"/>
<path d="M17.5206 7.56254C17.2793 7.3723 16.9916 7.11247 16.4673 7.04752C15.9755 6.98256 15.4744 7.31199 15.1357 7.53006C14.797 7.74813 14.1567 8.38842 13.8922 8.5833C13.6278 8.77817 12.9504 8.95912 11.86 9.61334C10.7696 10.2676 6.49173 13.0143 6.49173 13.0143L7.60528 13.0282L2.64068 15.5848H3.13714L2.42261 16.1276C2.42261 16.1276 3.05362 16.2947 3.58256 15.9606V16.1137C3.58256 16.1137 9.49369 13.7845 10.6351 14.3877L9.93911 14.5919C9.99943 14.5919 11.1223 14.6661 11.1223 14.6661C11.1495 14.8986 11.2277 15.1223 11.3512 15.3211C11.4747 15.52 11.6405 15.6892 11.8368 15.8168C12.5142 16.2622 12.5281 16.5081 12.5281 16.5081C12.5281 16.5081 12.1755 16.6519 12.1755 16.8329C12.1755 16.8329 12.6952 16.6751 13.1777 16.6891C13.484 16.7007 13.7877 16.749 14.0825 16.8329C14.0825 16.8329 14.0454 16.638 13.5767 16.5081C13.1081 16.3782 12.6441 15.8678 12.4168 15.5894C12.2775 15.4122 12.1868 15.2018 12.1534 14.9789C12.1201 14.7561 12.1453 14.5283 12.2265 14.3181C12.3889 13.8959 12.955 13.6639 14.1242 13.0607C15.5023 12.3462 15.8178 11.8172 16.0126 11.4043C16.2075 10.9914 16.4952 10.1701 16.6576 9.78501C16.8617 9.28855 17.1123 9.02408 17.3211 8.86633C17.5299 8.70857 18.4578 8.36059 18.4578 8.36059C18.4578 8.36059 17.7479 7.74349 17.5206 7.56254Z" fill="black"/>
</svg>
