<svg width="82" height="32" viewBox="0 0 82 32" fill="none" xmlns="http://www.w3.org/2000/svg">
<g clip-path="url(#clip0)">
<path d="M31.3896 8.8152H36.9975C37.7793 8.8152 38.5185 8.88628 39.215 9.02843C39.9115 9.17058 40.5157 9.41934 41.0274 9.77471C41.5534 10.1159 41.9656 10.585 42.2641 11.182C42.5768 11.7648 42.7332 12.504 42.7332 13.3995C42.7332 14.2809 42.5911 15.02 42.3068 15.6171C42.0225 16.2141 41.6315 16.6903 41.134 17.0457C40.6365 17.401 40.0466 17.6569 39.3643 17.8133C38.6819 17.9554 37.9428 18.0265 37.1467 18.0265H34.716V23.9115H31.3896V8.8152ZM34.716 15.2119H36.9335C37.232 15.2119 37.5163 15.1835 37.7864 15.1267C38.0707 15.0698 38.3195 14.9774 38.5327 14.8495C38.7601 14.7073 38.9378 14.5225 39.0657 14.2951C39.2079 14.0534 39.279 13.7549 39.279 13.3995C39.279 13.0157 39.1866 12.7101 39.0018 12.4827C38.8312 12.241 38.6038 12.0562 38.3195 11.9283C38.0494 11.8003 37.7437 11.7222 37.4026 11.6937C37.0614 11.6511 36.7345 11.6298 36.4218 11.6298H34.716V15.2119Z" fill="#0F0E0E"/>
<path d="M45.6732 8.8152H50.1936L56.6116 19.3059H56.6543V8.8152H59.9806V23.9115H55.6308L49.0422 13.165H48.9995V23.9115H45.6732V8.8152Z" fill="#0F0E0E"/>
<path d="M71.3759 12.504C71.1059 12.1628 70.7363 11.9141 70.2672 11.7577C69.8123 11.5871 69.3787 11.5018 68.9665 11.5018C68.7248 11.5018 68.4761 11.5303 68.2202 11.5871C67.9643 11.644 67.7227 11.7364 67.4952 11.8643C67.2678 11.978 67.083 12.1344 66.9409 12.3334C66.7987 12.5324 66.7276 12.7741 66.7276 13.0584C66.7276 13.5133 66.8982 13.8615 67.2394 14.1032C67.5805 14.3448 68.007 14.5509 68.5187 14.7215C69.0447 14.8921 69.6062 15.0627 70.2032 15.2333C70.8002 15.4038 71.3546 15.6455 71.8664 15.9582C72.3923 16.271 72.8259 16.6903 73.167 17.2163C73.5082 17.7422 73.6788 18.4458 73.6788 19.3272C73.6788 20.1659 73.5224 20.8979 73.2097 21.5234C72.8969 22.1489 72.4705 22.6677 71.9303 23.0799C71.4044 23.4922 70.786 23.7978 70.0753 23.9968C69.3787 24.1958 68.6396 24.2953 67.8577 24.2953C66.8769 24.2953 65.9671 24.1461 65.1285 23.8475C64.2898 23.549 63.5079 23.0657 62.783 22.3976L65.1498 19.7963C65.4909 20.2512 65.9174 20.6065 66.4291 20.8624C66.9551 21.104 67.4952 21.2249 68.0496 21.2249C68.3197 21.2249 68.5898 21.1964 68.8599 21.1396C69.1442 21.0685 69.3929 20.969 69.6062 20.8411C69.8336 20.7131 70.0113 20.5497 70.1392 20.3507C70.2814 20.1516 70.3525 19.9171 70.3525 19.647C70.3525 19.1921 70.1748 18.8368 69.8194 18.5809C69.4782 18.3108 69.0447 18.0834 68.5187 17.8986C67.9928 17.7138 67.4242 17.529 66.8129 17.3442C66.2017 17.1594 65.6331 16.9106 65.1071 16.5979C64.5812 16.2852 64.1405 15.8729 63.7851 15.3612C63.444 14.8495 63.2734 14.1742 63.2734 13.3356C63.2734 12.5253 63.4298 11.8146 63.7425 11.2033C64.0694 10.5921 64.4959 10.0803 65.0218 9.6681C65.562 9.25586 66.1804 8.95024 66.8769 8.75123C67.5734 8.53801 68.2913 8.4314 69.0305 8.4314C69.8834 8.4314 70.7078 8.55222 71.5039 8.79388C72.2999 9.03553 73.0178 9.44066 73.6574 10.0093L71.3759 12.504Z" fill="#0F0E0E"/>
<path d="M76.6687 22.0775C76.6687 21.8074 76.7185 21.5515 76.818 21.3099C76.9175 21.0682 77.0525 20.8621 77.2231 20.6915C77.4079 20.5067 77.6211 20.3646 77.8628 20.2651C78.1044 20.1656 78.3603 20.1158 78.6304 20.1158C78.9005 20.1158 79.1563 20.1656 79.398 20.2651C79.6396 20.3646 79.8458 20.5067 80.0163 20.6915C80.2011 20.8621 80.3433 21.0682 80.4428 21.3099C80.5423 21.5515 80.592 21.8074 80.592 22.0775C80.592 22.3476 80.5423 22.6034 80.4428 22.8451C80.3433 23.0867 80.2011 23.3 80.0163 23.4848C79.8458 23.6553 79.6396 23.7904 79.398 23.8899C79.1563 23.9894 78.9005 24.0391 78.6304 24.0391C78.3603 24.0391 78.1044 23.9894 77.8628 23.8899C77.6211 23.7904 77.4079 23.6553 77.2231 23.4848C77.0525 23.3 76.9175 23.0867 76.818 22.8451C76.7185 22.6034 76.6687 22.3476 76.6687 22.0775Z" fill="#DB3680"/>
<g clip-path="url(#clip1)">
<circle cx="22.1081" cy="10.1247" r="2.36538" fill="#DB3680"/>
</g>
<circle cx="2.45662" cy="10.1246" r="0.909254" fill="#DB3680"/>
<g clip-path="url(#clip2)">
<circle cx="17.2003" cy="12.9618" r="2.36538" fill="#DB3680"/>
</g>
<circle cx="7.35448" cy="12.9617" r="1.46654" fill="#DB3680"/>
<g clip-path="url(#clip3)">
<circle cx="22.1081" cy="15.7946" r="2.36538" fill="#DB3680"/>
</g>
<circle cx="2.45662" cy="15.7946" r="0.909254" fill="#DB3680"/>
<g clip-path="url(#clip4)">
<circle cx="17.2003" cy="18.6277" r="2.36538" fill="#DB3680"/>
</g>
<circle cx="17.2002" cy="7.29329" r="1.46654" fill="#DB3680"/>
<circle cx="7.35448" cy="18.6278" r="1.46654" fill="#DB3680"/>
<circle cx="7.35457" cy="7.29329" r="0.909254" fill="#DB3680"/>
<g clip-path="url(#clip5)">
<circle cx="22.1081" cy="21.4615" r="2.36538" fill="#DB3680"/>
</g>
<circle cx="2.45662" cy="21.4615" r="0.909254" fill="#DB3680"/>
<g clip-path="url(#clip6)">
<circle cx="17.2003" cy="24.2951" r="2.36538" fill="#DB3680"/>
</g>
<circle cx="7.35448" cy="24.2951" r="1.46654" fill="#DB3680"/>
<g clip-path="url(#clip7)">
<circle cx="12.2926" cy="27.1284" r="2.36538" fill="#DB3680"/>
</g>
<g clip-path="url(#clip8)">
<circle cx="12.2826" cy="21.4615" r="2.36538" fill="#DB3680"/>
</g>
<circle cx="12.2825" cy="10.1275" r="1.46654" fill="#DB3680"/>
<g clip-path="url(#clip9)">
<circle cx="12.2826" cy="15.7946" r="2.36538" fill="#DB3680"/>
</g>
<circle cx="12.2825" cy="4.46016" r="0.909254" fill="#DB3680"/>
</g>
<defs>
<clipPath id="clip0">
<rect width="82" height="31.9327" fill="white"/>
</clipPath>
<clipPath id="clip1">
<rect width="4.92788" height="4.92788" fill="white" transform="translate(19.6443 7.66061)"/>
</clipPath>
<clipPath id="clip2">
<rect width="4.92788" height="4.92788" fill="white" transform="translate(14.7363 10.4976)"/>
</clipPath>
<clipPath id="clip3">
<rect width="4.92788" height="4.92788" fill="white" transform="translate(19.6443 13.3306)"/>
</clipPath>
<clipPath id="clip4">
<rect width="4.92788" height="4.92788" fill="white" transform="translate(14.7363 16.1636)"/>
</clipPath>
<clipPath id="clip5">
<rect width="4.92788" height="4.92788" fill="white" transform="translate(19.6443 18.9977)"/>
</clipPath>
<clipPath id="clip6">
<rect width="4.92788" height="4.92788" fill="white" transform="translate(14.7363 21.8313)"/>
</clipPath>
<clipPath id="clip7">
<rect width="4.92788" height="4.92788" fill="white" transform="translate(9.82861 24.6647)"/>
</clipPath>
<clipPath id="clip8">
<rect width="4.92788" height="4.92788" fill="white" transform="translate(9.8186 18.9977)"/>
</clipPath>
<clipPath id="clip9">
<rect width="4.92788" height="4.92788" fill="white" transform="translate(9.8186 13.3306)"/>
</clipPath>
</defs>
</svg>
