<svg width="62" height="17" viewBox="0 0 62 17" fill="none" xmlns="http://www.w3.org/2000/svg">
<path d="M20.6437 4.39423C19.9995 4.39423 19.3784 4.47478 19.1253 4.54382C18.7573 4.64732 18.6652 4.80834 18.5962 5.14189L17.1354 11.8824C17.1124 12.0205 17.0894 12.1355 17.0894 12.2505C17.0894 12.5844 17.308 12.8026 17.6645 12.8026C18.0556 12.8026 18.2166 12.5496 18.2972 12.1585L18.7112 10.2376C18.9988 10.2721 19.3784 10.3065 19.919 10.3065C22.3001 10.3065 23.7838 9.01832 23.7838 7.07435C23.7839 5.37194 22.5991 4.39423 20.6437 4.39423ZM19.8615 9.20221C19.4934 9.20221 19.2059 9.19077 18.9413 9.15622L19.712 5.57895C19.9535 5.54439 20.3101 5.4984 20.6782 5.4984C21.9435 5.4984 22.5876 6.09656 22.5876 7.08578C22.5876 8.35113 21.6674 9.20229 19.8612 9.20229L19.8615 9.20221Z" fill="black"/>
<path d="M58.1228 10.5828C57.9273 10.5828 57.8007 10.6978 57.5592 10.9623C57.1334 11.3994 56.869 11.6409 56.5355 11.6409C56.2364 11.6409 56.0753 11.3994 56.0753 11.0083C56.0753 10.7898 56.1214 10.5252 56.1789 10.2377L56.6046 8.23619H57.8817C58.2843 8.23619 58.5258 8.00615 58.5258 7.59204C58.5258 7.36199 58.3763 7.18946 58.0313 7.18946H56.8345L57.0415 6.25775C57.0645 6.11977 57.0875 5.99322 57.0875 5.8782C57.0875 5.55608 56.869 5.32603 56.5124 5.32603C56.1328 5.32603 55.9602 5.57912 55.8798 5.97019L55.6152 7.18946H55.0746C54.6605 7.18946 54.4189 7.41951 54.4189 7.83361C54.4189 8.06366 54.58 8.23619 54.925 8.23619H55.3966L54.9709 10.2145C54.925 10.433 54.8674 10.7896 54.8674 11.1577C54.8674 12.0894 55.3506 12.768 56.3858 12.768C56.9839 12.768 57.5131 12.469 57.9157 12.1124C58.3067 11.7673 58.5943 11.3418 58.5943 11.0656C58.5944 10.8013 58.3875 10.5828 58.1228 10.5828Z" fill="black"/>
<path d="M31.6643 5.07294C31.6643 4.73905 31.4342 4.52077 31.0777 4.52077C30.6981 4.52077 30.5256 4.77386 30.445 5.16493L29.0072 11.8479C28.9727 11.986 28.9497 12.101 28.9497 12.216C28.9497 12.5499 29.1798 12.7681 29.5248 12.7681C29.9159 12.7681 30.0884 12.515 30.169 12.124L31.607 5.44097C31.6298 5.30299 31.6643 5.18797 31.6643 5.07294Z" fill="black"/>
<path d="M52.1987 7.0746C50.3582 7.0746 49.1042 8.90373 49.1042 10.6408C49.1042 10.6733 49.105 10.7055 49.106 10.7375C48.8174 11.1758 48.4485 11.6301 48.1954 11.6301C48.0114 11.6301 47.9423 11.4575 47.9423 11.1929C47.9423 10.8708 48.0342 10.3301 48.1379 9.85849L49.0928 5.44106C49.1157 5.30307 49.1388 5.18803 49.1388 5.073C49.1388 4.73908 48.9202 4.52077 48.5636 4.52077C48.1725 4.52077 48.0114 4.77389 47.9309 5.16499L47.4133 7.55778C47.1371 7.27019 46.7341 7.0746 46.1247 7.0746C44.9023 7.0746 43.6729 8.01567 43.1937 9.45879C42.666 10.823 42.1945 11.6301 41.8224 11.6301C41.6844 11.6301 41.6039 11.5151 41.6039 11.3195C41.6039 10.7443 41.9259 9.34099 42.064 8.66214C42.11 8.40902 42.133 8.30551 42.133 8.15591C42.133 7.64977 41.2932 7.05156 40.2004 7.05156C38.9367 7.05156 37.7922 7.85179 37.2181 9.0413C36.3659 10.5474 35.5837 11.6304 35.1964 11.6304C35.0239 11.6304 34.9664 11.4117 34.9204 11.2046L34.6328 9.61706L36.3929 8.17912C36.5539 8.04104 36.7609 7.8452 36.7609 7.59242C36.7609 7.28188 36.5539 7.07485 36.2433 7.07485C36.0133 7.07485 35.8176 7.21292 35.6222 7.37396L32.9766 9.55938L33.8624 5.44106C33.8855 5.30307 33.9199 5.18803 33.9199 5.073C33.9199 4.73908 33.6899 4.52077 33.3332 4.52077C32.9537 4.52077 32.7811 4.77389 32.7005 5.16499L31.2626 11.8487C31.2281 11.9867 31.2051 12.1018 31.2051 12.2168C31.2051 12.5507 31.4351 12.7689 31.7803 12.7689C32.1714 12.7689 32.3439 12.5158 32.4245 12.1247L32.6085 11.262L33.6899 10.3877L33.9545 11.7221C34.058 12.2513 34.3341 12.7689 35.0473 12.7689C35.7569 12.7689 36.3151 12.1209 36.8743 11.2453C37.044 12.1624 37.6964 12.7689 38.6019 12.7689C39.5107 12.7689 40.1318 12.2282 40.5345 11.5035V11.5265C40.5345 12.2743 40.9141 12.7689 41.5813 12.7689C42.1845 12.7689 42.6857 12.4052 43.1333 11.6319C43.3872 12.3058 43.9546 12.7689 44.7445 12.7689C45.6763 12.7689 46.3434 12.2053 46.7691 11.423V11.492C46.7691 12.3203 47.1832 12.7693 47.8619 12.7693C48.4612 12.7693 48.9707 12.4215 49.4051 11.8549C49.7358 12.4209 50.3283 12.7693 51.129 12.7693C52.9696 12.7693 54.2234 10.9402 54.2234 9.19165C54.2234 7.9604 53.4756 7.0746 52.1987 7.0746ZM40.7296 9.40978C40.3957 10.8477 39.6828 11.6645 38.8776 11.6645C38.3369 11.6645 38.0378 11.2503 38.0378 10.6293C38.0378 9.40995 38.9236 8.09848 40.1081 8.09848C40.4646 8.09848 40.7408 8.20208 40.9823 8.35159L40.7296 9.40978ZM47.1371 8.80038C46.769 10.4914 45.9292 11.6648 45.0089 11.6648C44.5028 11.6648 44.2037 11.2737 44.2037 10.6297C44.2037 9.39876 45.0552 8.12185 46.1938 8.12185C46.6309 8.12185 46.9645 8.27137 47.2061 8.46696L47.1371 8.80038ZM51.2671 11.6646C50.5999 11.6646 50.3238 11.1814 50.3238 10.5717C50.3238 9.45586 51.0944 8.17895 52.0608 8.17895C52.728 8.17895 53.0041 8.66214 53.0041 9.27179C53.004 10.3992 52.2333 11.6646 51.2671 11.6646Z" fill="black"/>
<path d="M26.6489 7.0746C24.8084 7.0746 23.5547 8.90355 23.5547 10.6404C23.5547 11.8827 24.3023 12.7684 25.5791 12.7684C27.4195 12.7684 28.6733 10.9395 28.6733 9.19111C28.6733 7.96032 27.9255 7.0746 26.6489 7.0746ZM25.7172 11.6641C25.05 11.6641 24.774 11.181 24.774 10.5714C24.774 9.45563 25.5447 8.17885 26.5108 8.17885C27.178 8.17885 27.4541 8.66198 27.4541 9.27158C27.4541 10.3989 26.6834 11.6641 25.7172 11.6641Z" fill="black"/>
<path d="M9.08435 5.10808C10.2565 5.10808 11.2068 4.55516 11.2068 3.87311C11.2068 3.19106 10.2565 2.63815 9.08435 2.63815C7.91216 2.63815 6.96191 3.19106 6.96191 3.87311C6.96191 4.55516 7.91216 5.10808 9.08435 5.10808Z" fill="#E6007A"/>
<path d="M9.08435 14.4108C10.2565 14.4108 11.2068 13.8579 11.2068 13.1759C11.2068 12.4938 10.2565 11.9409 9.08435 11.9409C7.91216 11.9409 6.96191 12.4938 6.96191 13.1759C6.96191 13.8579 7.91216 14.4108 9.08435 14.4108Z" fill="#E6007A"/>
<path d="M6.12553 6.81656C6.71163 5.80141 6.70792 4.70202 6.11724 4.36099C5.52657 4.01997 4.57261 4.56645 3.98651 5.58159C3.40042 6.59674 3.40413 7.69613 3.9948 8.03716C4.58548 8.37819 5.53944 7.8317 6.12553 6.81656Z" fill="#E6007A"/>
<path d="M14.1817 11.4679C14.7678 10.4528 14.7641 9.3534 14.1734 9.01237C13.5827 8.67135 12.6288 9.21783 12.0427 10.233C11.4566 11.2481 11.4603 12.3475 12.051 12.6885C12.6416 13.0296 13.5956 12.4831 14.1817 11.4679Z" fill="#E6007A"/>
<path d="M6.11724 12.6882C6.70792 12.3472 6.71163 11.2478 6.12553 10.2327C5.53944 9.21754 4.58548 8.67105 3.9948 9.01208C3.40413 9.35311 3.40042 10.4525 3.98651 11.4676C4.57261 12.4828 5.52657 13.0293 6.11724 12.6882Z" fill="#E6007A"/>
<path d="M14.1734 8.03697C14.7641 7.69595 14.7678 6.59655 14.1817 5.58141C13.5956 4.56626 12.6416 4.01978 12.051 4.3608C11.4603 4.70183 11.4566 5.80123 12.0427 6.81637C12.6288 7.83152 13.5827 8.378 14.1734 8.03697Z" fill="#E6007A"/>
</svg>
