<svg width="22" height="23" viewBox="0 0 22 23" fill="none" xmlns="http://www.w3.org/2000/svg">
<path d="M0 11.936C0 5.8609 4.92487 0.936035 11 0.936035C17.0751 0.936035 22 5.8609 22 11.936C22 18.0112 17.0751 22.936 11 22.936C4.92487 22.936 0 18.0112 0 11.936Z" fill="white"/>
<path d="M10.9999 7.48202C12.5281 7.48202 13.767 6.76119 13.767 5.87199C13.767 4.9828 12.5281 4.26196 10.9999 4.26196C9.47175 4.26196 8.23291 4.9828 8.23291 5.87199C8.23291 6.76119 9.47175 7.48202 10.9999 7.48202Z" fill="#E6007A"/>
<path d="M10.9999 19.6101C12.5281 19.6101 13.767 18.8893 13.767 18.0001C13.767 17.1109 12.5281 16.39 10.9999 16.39C9.47175 16.39 8.23291 17.1109 8.23291 18.0001C8.23291 18.8893 9.47175 19.6101 10.9999 19.6101Z" fill="#E6007A"/>
<path d="M7.14262 9.70941C7.90672 8.38596 7.90188 6.95267 7.13181 6.50808C6.36175 6.06348 5.11807 6.77593 4.35397 8.09938C3.58988 9.42283 3.59472 10.8561 4.36478 11.3007C5.13485 11.7453 6.37853 11.0329 7.14262 9.70941Z" fill="#E6007A"/>
<path d="M17.6458 15.7734C18.4099 14.45 18.4051 13.0167 17.635 12.5721C16.8649 12.1275 15.6212 12.84 14.8571 14.1634C14.0931 15.4869 14.0979 16.9201 14.868 17.3647C15.638 17.8093 16.8817 17.0969 17.6458 15.7734Z" fill="#E6007A"/>
<path d="M7.13181 17.3643C7.90188 16.9197 7.90672 15.4864 7.14263 14.163C6.37853 12.8395 5.13485 12.1271 4.36478 12.5717C3.59472 13.0163 3.58988 14.4496 4.35397 15.773C5.11807 17.0965 6.36175 17.8089 7.13181 17.3643Z" fill="#E6007A"/>
<path d="M17.635 11.3005C18.4051 10.8559 18.4099 9.42257 17.6458 8.09912C16.8817 6.77567 15.638 6.06322 14.868 6.50782C14.0979 6.95242 14.0931 8.3857 14.8571 9.70915C15.6212 11.0326 16.8649 11.7451 17.635 11.3005Z" fill="#E6007A"/>
</svg>
