<svg width="30" height="30" viewBox="0 0 30 30" fill="none" xmlns="http://www.w3.org/2000/svg">
<rect x="0.5" y="0.5" width="29" height="29" rx="14.5" stroke="url(#paint0_linear_1105_44393)"/>
<path d="M9 16V19.5714C9 19.9503 9.15804 20.3137 9.43934 20.5816C9.72064 20.8495 10.1022 21 10.5 21H19.5C19.8978 21 20.2794 20.8495 20.5607 20.5816C20.842 20.3137 21 19.9503 21 19.5714V16" stroke="url(#paint1_linear_1105_44393)" stroke-linecap="round" stroke-linejoin="round"/>
<path d="M17.5 13L15 10L12.5 13" stroke="url(#paint2_linear_1105_44393)" stroke-linecap="round" stroke-linejoin="round"/>
<path d="M15 11V16" stroke="url(#paint3_linear_1105_44393)" stroke-linecap="round" stroke-linejoin="round"/>
<defs>
<linearGradient id="paint0_linear_1105_44393" x1="-1.65155e-07" y1="10" x2="28.5" y2="19.5" gradientUnits="userSpaceOnUse">
<stop stop-color="#9824E1"/>
<stop offset="1" stop-color="#841AEC"/>
</linearGradient>
<linearGradient id="paint1_linear_1105_44393" x1="15" y1="16" x2="15" y2="21" gradientUnits="userSpaceOnUse">
<stop stop-color="#9824E1"/>
<stop offset="1" stop-color="#841AEC"/>
</linearGradient>
<linearGradient id="paint2_linear_1105_44393" x1="15" y1="10" x2="15" y2="13" gradientUnits="userSpaceOnUse">
<stop stop-color="#9824E1"/>
<stop offset="1" stop-color="#841AEC"/>
</linearGradient>
<linearGradient id="paint3_linear_1105_44393" x1="15.5" y1="11" x2="15.5" y2="16" gradientUnits="userSpaceOnUse">
<stop stop-color="#9824E1"/>
<stop offset="1" stop-color="#841AEC"/>
</linearGradient>
</defs>
</svg>
