<svg width="14" height="14" viewBox="0 0 14 14" fill="none" xmlns="http://www.w3.org/2000/svg">
<path fill-rule="evenodd" clip-rule="evenodd" d="M6.76593 0.759399C3.03382 0.759399 0.0109863 3.78223 0.0109863 7.51434C0.0109863 10.5034 1.94459 13.0281 4.62968 13.9231C4.96742 13.9822 5.09408 13.7795 5.09408 13.6022C5.09408 13.4418 5.08563 12.9098 5.08563 12.3441C3.38846 12.6565 2.94938 11.9304 2.81429 11.5504C2.73829 11.3562 2.40899 10.7567 2.1219 10.5963C1.88548 10.4696 1.54773 10.1572 2.11346 10.1488C2.64541 10.1403 3.02538 10.6385 3.15203 10.8411C3.75998 11.8628 4.731 11.5757 5.11941 11.3984C5.17851 10.9594 5.35583 10.6638 5.55004 10.495C4.04706 10.3261 2.47654 9.74347 2.47654 7.1597C2.47654 6.4251 2.73829 5.81716 3.16892 5.34431C3.10137 5.17544 2.86495 4.48306 3.23647 3.55426C3.23647 3.55426 3.8022 3.37694 5.09408 4.24664C5.63447 4.09465 6.20864 4.01866 6.78281 4.01866C7.35698 4.01866 7.93115 4.09465 8.47155 4.24664C9.76343 3.36849 10.3292 3.55426 10.3292 3.55426C10.7007 4.48306 10.4643 5.17544 10.3967 5.34431C10.8273 5.81716 11.0891 6.41666 11.0891 7.1597C11.0891 9.75191 9.51012 10.3261 8.00715 10.495C8.25201 10.706 8.4631 11.1113 8.4631 11.7446C8.4631 12.6481 8.45466 13.3742 8.45466 13.6022C8.45466 13.7795 8.58132 13.9906 8.91906 13.9231C11.5873 13.0281 13.5209 10.495 13.5209 7.51434C13.5209 3.78223 10.498 0.759399 6.76593 0.759399Z" fill="black"/>
</svg>
