<svg width="14" height="14" viewBox="0 0 14 14" fill="none" xmlns="http://www.w3.org/2000/svg">
<path d="M12.585 0.24939H1.0726C0.521127 0.24939 0.0751953 0.684767 0.0751953 1.22305V12.783C0.0751953 13.3213 0.521127 13.7593 1.0726 13.7593H12.585C13.1365 13.7593 13.5851 13.3213 13.5851 12.7856V1.22305C13.5851 0.684767 13.1365 0.24939 12.585 0.24939ZM4.0833 11.7618H2.07793V5.31295H4.0833V11.7618ZM3.08062 4.43429C2.43679 4.43429 1.91697 3.91447 1.91697 3.27328C1.91697 2.63209 2.43679 2.11228 3.08062 2.11228C3.72181 2.11228 4.24162 2.63209 4.24162 3.27328C4.24162 3.91183 3.72181 4.43429 3.08062 4.43429ZM11.5876 11.7618H9.58488V8.6271C9.58488 7.88036 9.57169 6.91725 8.54262 6.91725C7.50035 6.91725 7.34203 7.7326 7.34203 8.57432V11.7618H5.34194V5.31295H7.26287V6.19426H7.28926C7.55576 5.68764 8.21015 5.152 9.18381 5.152C11.2129 5.152 11.5876 6.48715 11.5876 8.22338V11.7618Z" fill="#0A66C2"/>
</svg>
