<svg width="15" height="12" viewBox="0 0 15 12" fill="none" xmlns="http://www.w3.org/2000/svg">
<path fill-rule="evenodd" clip-rule="evenodd" d="M0.558506 2.01695C0.558506 0.917714 1.44961 0.0266113 2.54884 0.0266113H12.1904C13.2896 0.0266113 14.1807 0.917717 14.1807 2.01695V3.18138C14.1809 3.1923 14.1809 3.2032 14.1807 3.2141V9.01179C14.1807 10.111 13.2896 11.0021 12.1904 11.0021H2.54884C1.44961 11.0021 0.558506 10.111 0.558506 9.01179V3.21406C0.558298 3.20319 0.558297 3.19231 0.558506 3.18141V2.01695ZM2.27059 4.65337V9.01179C2.27059 9.16547 2.39517 9.29005 2.54884 9.29005H12.1904C12.3441 9.29005 12.4686 9.16547 12.4686 9.01179V4.65337L8.33621 6.94916C7.73508 7.28312 7.00415 7.28312 6.40302 6.94916L2.27059 4.65337ZM12.4686 2.69481L7.50475 5.45253C7.42071 5.49922 7.31852 5.49922 7.23448 5.45253L2.27059 2.69481V2.01695C2.27059 1.86327 2.39517 1.73869 2.54884 1.73869H12.1904C12.3441 1.73869 12.4686 1.86327 12.4686 2.01695V2.69481Z" fill="#F83673"/>
</svg>
