<svg width="14" height="12" viewBox="0 0 14 12" fill="none" xmlns="http://www.w3.org/2000/svg">
<path d="M4.25007 11.4885C9.34688 11.4885 12.1354 7.26485 12.1354 3.6032C12.1354 3.48446 12.1328 3.36308 12.1275 3.24434C12.6699 2.85205 13.1381 2.36614 13.5099 1.80944C13.0047 2.03422 12.4683 2.18101 11.919 2.24482C12.4974 1.89816 12.9304 1.35358 13.1378 0.71203C12.5938 1.03446 11.9988 1.26191 11.3784 1.38462C10.9604 0.940456 10.4077 0.646366 9.80574 0.54782C9.20382 0.449274 8.5862 0.55176 8.04836 0.839434C7.51053 1.12711 7.08244 1.58395 6.83028 2.13932C6.57812 2.69469 6.51594 3.31766 6.65335 3.91192C5.55171 3.85664 4.47399 3.57046 3.49004 3.07194C2.5061 2.57342 1.6379 1.87369 0.941733 1.01811C0.587905 1.62816 0.479632 2.35003 0.638922 3.03704C0.798211 3.72404 1.21311 4.32462 1.79929 4.71671C1.35922 4.70273 0.92879 4.58425 0.543562 4.37104V4.40535C0.543167 5.04554 0.764489 5.66611 1.1699 6.16158C1.57532 6.65704 2.13981 6.99682 2.76741 7.12315C2.35976 7.23469 1.9319 7.25094 1.51696 7.17065C1.69406 7.72122 2.03863 8.20276 2.50258 8.54808C2.96653 8.89339 3.52671 9.08525 4.10494 9.09686C3.12327 9.86798 1.91062 10.2862 0.662301 10.2843C0.440921 10.2839 0.21976 10.2703 0 10.2436C1.26816 11.0572 2.74337 11.4893 4.25007 11.4885Z" fill="#1DA1F2"/>
</svg>
