<svg width="30" height="30" viewBox="0 0 30 30" fill="none" xmlns="http://www.w3.org/2000/svg">
<rect x="0.5" y="0.5" width="29" height="29" rx="14.5" stroke="#0F0E2E"/>
<path fill-rule="evenodd" clip-rule="evenodd" d="M20.657 9.343C19.4854 8.17143 17.5859 8.17143 16.4143 9.343L14.6466 11.1108C14.4513 11.306 14.4513 11.6226 14.6466 11.8179C14.8418 12.0131 15.1584 12.0131 15.3537 11.8179L17.1214 10.0501C17.9025 9.26906 19.1688 9.26906 19.9499 10.0501C20.7309 10.8312 20.7309 12.0975 19.9499 12.8785L17.1214 15.707C16.3404 16.488 15.0741 16.488 14.293 15.707C14.0977 15.5117 13.7812 15.5117 13.5859 15.707C13.3906 15.9022 13.3906 16.2188 13.5859 16.4141C14.7575 17.5856 16.657 17.5856 17.8285 16.4141L20.657 13.5856C21.8285 12.4141 21.8285 10.5146 20.657 9.343ZM9.34326 20.6567C10.5148 21.8283 12.4143 21.8283 13.5859 20.6567L15.3537 18.8889C15.5489 18.6937 15.5489 18.3771 15.3537 18.1818C15.1584 17.9866 14.8418 17.9866 14.6466 18.1818L12.8788 19.9496C12.0977 20.7307 10.8314 20.7307 10.0504 19.9496C9.26931 19.1686 9.26931 17.9022 10.0504 17.1212L12.8788 14.2927C13.6598 13.5117 14.9262 13.5117 15.7072 14.2927C15.9025 14.488 16.2191 14.488 16.4143 14.2927C16.6096 14.0975 16.6096 13.7809 16.4143 13.5856C15.2428 12.4141 13.3433 12.4141 12.1717 13.5856L9.34326 16.4141C8.17168 17.5856 8.17168 19.4851 9.34326 20.6567Z" fill="#0F0E2E"/>
</svg>
