<svg width="30" height="30" viewBox="0 0 30 30" fill="none" xmlns="http://www.w3.org/2000/svg">
<rect x="0.5" y="0.5" width="29" height="29" rx="14.5" stroke="#0F0E2E"/>
<path fill-rule="evenodd" clip-rule="evenodd" d="M21.1873 8.81267C19.7228 7.3482 17.3485 7.3482 15.884 8.81267L14.1162 10.5804C13.7373 10.9593 13.6525 11.521 13.8618 11.9817C13.0505 12.0751 12.2637 12.4329 11.6414 13.0553L8.81293 15.8837C7.34846 17.3482 7.34846 19.7226 8.81293 21.187C10.2774 22.6515 12.6518 22.6515 14.1162 21.187L15.884 19.4193C16.2629 19.0404 16.3477 18.4787 16.1384 18.018C16.9498 17.9247 17.7365 17.5668 18.3589 16.9444L21.1873 14.116C22.6518 12.6515 22.6518 10.2771 21.1873 8.81267ZM14.0903 17.6774C13.7162 17.4987 13.3655 17.2543 13.0556 16.9444C12.5674 16.4562 12.5674 15.6648 13.0556 15.1766C13.5437 14.6885 14.3352 14.6885 14.8233 15.1766C15.3115 15.6648 16.1029 15.6648 16.5911 15.1766L16.9447 14.8231L19.4195 12.3482C19.9077 11.86 19.9077 11.0686 19.4195 10.5804C18.9314 10.0923 18.1399 10.0923 17.6518 10.5804L15.9099 12.3223C16.2841 12.5011 16.6347 12.7454 16.9447 13.0553C17.4328 13.5435 17.4328 14.3349 16.9447 14.8231C16.4565 15.3112 15.665 15.3112 15.1769 14.8231C14.6887 14.3349 13.8973 14.3349 13.4091 14.8231L13.0556 15.1766L10.5807 17.6515C10.0925 18.1397 10.0925 18.9311 10.5807 19.4193C11.0688 19.9074 11.8603 19.9074 12.3485 19.4193L14.0903 17.6774Z" fill="#0F0E2E"/>
</svg>
