<svg width="30" height="30" viewBox="0 0 30 30" fill="none" xmlns="http://www.w3.org/2000/svg">
<path fill-rule="evenodd" clip-rule="evenodd" d="M10.9078 28.3925C5.17226 26.6421 1 21.3083 1 15C1 7.26801 7.26801 1 15 1C22.732 1 29 7.26801 29 15C29 21.2277 24.9336 26.5057 19.3111 28.3237V24.2631C19.3111 23.0727 18.8008 22.0111 17.9947 21.2639C18.7933 21.0097 19.5399 20.6507 20.2024 20.1974C21.1569 19.5444 21.9139 18.7114 22.3996 17.7603C22.886 16.8079 23.0833 15.7694 22.968 14.7341C22.8621 13.7838 22.4971 12.8728 21.9096 12.0637C22.2239 10.9936 22.5267 9.20636 21.6031 7.73428C21.5117 7.5885 21.3517 7.5 21.1796 7.5C19.4797 7.5 18.3341 8.52309 17.7128 9.28116C16.8768 9.04321 15.9971 8.92059 15.1108 8.91825L15.109 8.91826C14.2218 8.91904 13.3408 9.04039 12.5033 9.2774C11.8813 8.51979 10.7366 7.5 9.03934 7.5C8.86725 7.5 8.70725 7.5885 8.6158 7.73428C7.59983 9.35366 8.0521 11.0572 8.40858 11.931C7.79554 12.7286 7.40189 13.6331 7.26711 14.5829C7.11814 15.6326 7.29199 16.6925 7.76716 17.668C8.2416 18.642 8.99912 19.4973 9.96286 20.1679C10.6371 20.637 11.4003 21.0076 12.2184 21.2682C11.7036 21.7454 11.309 22.3509 11.0932 23.0403H10.507C10.1012 23.0403 9.86699 22.9602 9.68601 22.8437C9.4861 22.715 9.30879 22.5169 9.04766 22.1873C8.49706 21.4832 7.86358 20.9571 7.06282 20.7359C7.03638 20.7286 7.00937 20.7235 6.98208 20.7206C6.69582 20.6904 6.3347 20.7698 6.1283 21.0608C6.01465 21.221 5.9674 21.4282 6.02371 21.639C6.07634 21.836 6.20444 21.9831 6.33821 22.0862C6.34624 22.0924 6.35445 22.0983 6.36284 22.104C6.77785 22.3853 7.00915 22.758 7.19131 23.1869C7.26518 23.3608 7.32671 23.5329 7.3918 23.715C7.40958 23.7647 7.42763 23.8152 7.44627 23.8667C7.52931 24.096 7.62402 24.3444 7.74995 24.5725L7.75108 24.5745C8.19738 25.3741 9.12873 26.1368 10.2453 26.1368H10.9078V28.3925ZM11.9078 28.6574C12.9026 28.8816 13.9375 29 15 29C16.1407 29 17.2496 28.8636 18.3111 28.6061V24.2631C18.3111 23.0553 17.6129 22.0132 16.5913 21.4919C16.401 21.3947 16.2934 21.1874 16.3236 20.9758C16.3538 20.7643 16.5151 20.5953 16.725 20.5553C17.8077 20.3491 18.8057 19.9413 19.6378 19.3721C20.4697 18.8029 21.1073 18.092 21.509 17.3056C21.9099 16.5205 22.0669 15.6779 21.9741 14.8447C21.8812 14.0109 21.5393 13.1971 20.9642 12.4718C20.86 12.3404 20.8286 12.1655 20.8807 12.0061C21.1819 11.0827 21.4582 9.66034 20.8939 8.51316C19.6173 8.63176 18.7573 9.52631 18.302 10.1539C18.1745 10.3296 17.9482 10.403 17.7418 10.3355C16.9085 10.0629 16.0142 9.92072 15.109 9.91826C14.2033 9.91915 13.308 10.06 12.4735 10.3314C12.2675 10.3985 12.0417 10.3252 11.9143 10.15C11.4579 9.52207 10.5981 8.63059 9.32309 8.51298C8.6691 9.8059 9.14289 11.1657 9.44064 11.7946C9.52475 11.9722 9.49698 12.1827 9.36968 12.3324C8.75442 13.0561 8.37727 13.8772 8.25719 14.7234C8.13723 15.5687 8.27531 16.4276 8.66618 17.2301C9.0578 18.0341 9.69461 18.763 10.534 19.3471C11.3736 19.9312 12.3862 20.3496 13.4869 20.5597C13.6965 20.5997 13.8577 20.7684 13.888 20.9797C13.9184 21.191 13.8113 21.3982 13.6214 21.4957C12.7812 21.9269 12.1599 22.7051 11.9701 23.6398C11.9228 23.8729 11.7179 24.0403 11.4801 24.0403H10.507C9.95261 24.0403 9.52013 23.9262 9.14477 23.6846C8.78859 23.4553 8.52005 23.1318 8.26273 22.8068L8.26079 22.8044C8.15352 22.6671 8.04655 22.5428 7.93917 22.4309C8.00399 22.5534 8.06071 22.6758 8.11172 22.7959C8.19819 22.9995 8.2723 23.207 8.33844 23.3922L8.33846 23.3922C8.35495 23.4384 8.37095 23.4832 8.38652 23.5262C8.46821 23.7518 8.54039 23.935 8.62484 24.0881C8.9457 24.6622 9.5854 25.1368 10.2453 25.1368H11.4078C11.684 25.1368 11.9078 25.3606 11.9078 25.6368V28.6574ZM0 15C0 6.71573 6.71573 0 15 0C23.2843 0 30 6.71573 30 15C30 23.2843 23.2843 30 15 30C6.71573 30 0 23.2843 0 15Z" fill="#0F0E2E"/>
</svg>
