<svg width="30" height="30" viewBox="0 0 30 30" fill="none" xmlns="http://www.w3.org/2000/svg">
<path fill-rule="evenodd" clip-rule="evenodd" d="M11.4078 28.5349C5.41635 26.9489 1 21.4902 1 15C1 7.26801 7.26801 1 15 1C22.732 1 29 7.26801 29 15C29 21.4109 24.6909 26.8153 18.8111 28.475V24.2631C18.8111 22.855 17.9962 21.6475 16.8186 21.0465C17.9637 20.8284 19.0269 20.3958 19.9201 19.7847C20.8133 19.1737 21.5106 18.4017 21.9543 17.533C22.3979 16.6642 22.5751 15.7236 22.471 14.7894C22.367 13.8552 21.9847 12.9542 21.356 12.1612C21.6844 11.1547 22.0512 9.38926 21.1796 8C19.4991 8 18.4148 9.14703 17.8973 9.86029C17.0126 9.57088 16.0659 9.42077 15.1095 9.41826C14.1525 9.4191 13.2047 9.56775 12.3188 9.85597C11.8 9.14237 10.7165 8 9.03934 8C8.03911 9.59431 8.65744 11.3089 8.98874 12.0086C8.3175 12.7981 7.89662 13.7056 7.76215 14.6531C7.62769 15.6007 7.78365 16.5601 8.21667 17.4491C8.6497 18.3381 9.34687 19.1302 10.2484 19.7575C11.15 20.3848 12.229 20.8286 13.3931 21.0508C12.4261 21.5471 11.7019 22.4476 11.4801 23.5403H10.507C9.54678 23.5403 9.17369 23.1518 8.65472 22.4964C8.14241 21.8411 7.59155 21.4007 6.92969 21.2179C6.57285 21.1803 6.33245 21.4505 6.64339 21.6901C7.37697 22.1874 7.63365 22.9058 7.86519 23.5538C7.96523 23.8338 8.06058 24.1006 8.18767 24.3308C8.57117 25.0179 9.35687 25.6368 10.2453 25.6368H11.4078V28.5349ZM0 15C0 6.71573 6.71573 0 15 0C23.2843 0 30 6.71573 30 15C30 23.2843 23.2843 30 15 30C6.71573 30 0 23.2843 0 15Z" fill="#0F0E2E"/>
</svg>
