<svg width="30" height="30" viewBox="0 0 30 30" fill="none" xmlns="http://www.w3.org/2000/svg">
<rect x="0.5" y="0.5" width="29" height="29" rx="14.5" stroke="#0F0E2E"/>
<path d="M23.252 10.5684C22.6543 10.8262 22.0039 11.0117 21.334 11.084C22.0254 10.6719 22.5508 10.0215 22.7988 9.24805C22.1602 9.62891 21.4375 9.9082 20.6855 10.0527C20.0762 9.40234 19.2109 9 18.252 9C16.4062 9 14.9219 10.4961 14.9219 12.332C14.9219 12.5898 14.9531 12.8477 15.0039 13.0957C12.2402 12.9512 9.77539 11.6309 8.13672 9.60937C7.84766 10.1055 7.68359 10.6719 7.68359 11.291C7.68359 12.4473 8.27148 13.4668 9.16797 14.0664C8.62109 14.0449 8.10547 13.8906 7.66211 13.6426V13.6836C7.66211 15.3027 8.80664 16.6445 10.332 16.9531C10.0527 17.0254 9.75391 17.0664 9.45508 17.0664C9.23828 17.0664 9.0332 17.0449 8.82617 17.0156C9.24805 18.3359 10.4766 19.2949 11.9395 19.3262C10.7949 20.2227 9.36133 20.75 7.80469 20.75C7.52539 20.75 7.26758 20.7402 7 20.709C8.47656 21.6562 10.2285 22.2031 12.1152 22.2031C18.2402 22.2031 21.5918 17.1289 21.5918 12.7246C21.5918 12.5801 21.5918 12.4355 21.582 12.291C22.2305 11.8164 22.7988 11.2285 23.252 10.5684Z" stroke="#0F0E2E" stroke-linejoin="round"/>
</svg>
