<svg width="375" height="375" viewBox="0 0 375 375" fill="none" xmlns="http://www.w3.org/2000/svg">
<rect width="375" height="375" fill="white"/>
<g clip-path="url(#clip0_1209_44945)">
<rect width="375" height="375" fill="white"/>
<g filter="url(#filter0_f_1209_44945)">
<ellipse cx="320.017" cy="53.4419" rx="104.13" ry="55.0136" transform="rotate(-19.3742 320.017 53.4419)" fill="#F4E98A"/>
</g>
<g style="mix-blend-mode:hard-light" filter="url(#filter1_f_1209_44945)">
<ellipse cx="54.1688" cy="34.5806" rx="93.7317" ry="74.8934" transform="rotate(-10.9006 54.1688 34.5806)" fill="#1A68FF"/>
</g>
<g filter="url(#filter2_f_1209_44945)">
<ellipse cx="222.032" cy="339.836" rx="113.965" ry="67.3469" transform="rotate(-55.1888 222.032 339.836)" fill="#FF87C8"/>
</g>
<g filter="url(#filter3_f_1209_44945)">
<ellipse cx="64.7225" cy="263.509" rx="92.3471" ry="73.7871" transform="rotate(-10.9006 64.7225 263.509)" fill="white"/>
</g>
</g>
<g clip-path="url(#clip1_1209_44945)">
<path d="M178.252 264.282H183.521C184.255 264.282 184.95 264.348 185.604 264.482C186.259 264.616 186.826 264.849 187.307 265.183C187.801 265.504 188.188 265.944 188.469 266.505C188.763 267.053 188.909 267.747 188.909 268.589C188.909 269.417 188.776 270.111 188.509 270.672C188.242 271.233 187.874 271.68 187.407 272.014C186.94 272.348 186.385 272.588 185.744 272.735C185.103 272.869 184.409 272.936 183.661 272.936H181.377V278.464H178.252V264.282ZM181.377 270.291H183.461C183.741 270.291 184.008 270.265 184.262 270.211C184.529 270.158 184.763 270.071 184.963 269.951C185.177 269.817 185.344 269.644 185.464 269.43C185.597 269.203 185.664 268.922 185.664 268.589C185.664 268.228 185.577 267.941 185.404 267.727C185.244 267.5 185.03 267.327 184.763 267.206C184.509 267.086 184.222 267.013 183.901 266.986C183.581 266.946 183.274 266.926 182.98 266.926H181.377V270.291Z" fill="#200E2F"/>
<path d="M191.671 264.282H195.918L201.948 274.137H201.988V264.282H205.113V278.464H201.026L194.837 268.368H194.796V278.464H191.671V264.282Z" fill="#200E2F"/>
<path d="M215.819 267.747C215.565 267.427 215.218 267.193 214.777 267.046C214.35 266.886 213.942 266.806 213.555 266.806C213.328 266.806 213.094 266.832 212.854 266.886C212.613 266.939 212.386 267.026 212.173 267.146C211.959 267.253 211.786 267.4 211.652 267.587C211.518 267.774 211.452 268.001 211.452 268.268C211.452 268.695 211.612 269.023 211.932 269.25C212.253 269.477 212.654 269.67 213.134 269.831C213.628 269.991 214.156 270.151 214.717 270.311C215.278 270.472 215.799 270.699 216.279 270.992C216.773 271.286 217.181 271.68 217.501 272.174C217.822 272.668 217.982 273.329 217.982 274.157C217.982 274.945 217.835 275.633 217.541 276.221C217.248 276.808 216.847 277.296 216.339 277.683C215.845 278.07 215.264 278.357 214.597 278.544C213.942 278.731 213.248 278.825 212.513 278.825C211.592 278.825 210.737 278.685 209.949 278.404C209.161 278.124 208.427 277.67 207.746 277.042L209.969 274.598C210.29 275.026 210.69 275.359 211.171 275.6C211.665 275.827 212.173 275.94 212.694 275.94C212.947 275.94 213.201 275.914 213.455 275.86C213.722 275.793 213.956 275.7 214.156 275.58C214.37 275.46 214.537 275.306 214.657 275.119C214.79 274.932 214.857 274.712 214.857 274.458C214.857 274.031 214.69 273.697 214.356 273.456C214.036 273.203 213.628 272.989 213.134 272.815C212.64 272.642 212.106 272.468 211.532 272.294C210.958 272.121 210.423 271.887 209.929 271.593C209.435 271.3 209.021 270.912 208.687 270.432C208.367 269.951 208.206 269.316 208.206 268.528C208.206 267.767 208.353 267.1 208.647 266.525C208.954 265.951 209.355 265.47 209.849 265.083C210.357 264.696 210.937 264.409 211.592 264.222C212.246 264.021 212.921 263.921 213.615 263.921C214.416 263.921 215.191 264.035 215.939 264.262C216.687 264.489 217.361 264.869 217.962 265.404L215.819 267.747Z" fill="#200E2F"/>
<path d="M220.791 276.742C220.791 276.488 220.838 276.247 220.931 276.02C221.024 275.793 221.151 275.6 221.312 275.44C221.485 275.266 221.686 275.132 221.913 275.039C222.14 274.945 222.38 274.899 222.634 274.899C222.887 274.899 223.128 274.945 223.355 275.039C223.582 275.132 223.776 275.266 223.936 275.44C224.109 275.6 224.243 275.793 224.336 276.02C224.43 276.247 224.477 276.488 224.477 276.742C224.477 276.995 224.43 277.236 224.336 277.463C224.243 277.69 224.109 277.89 223.936 278.064C223.776 278.224 223.582 278.351 223.355 278.444C223.128 278.538 222.887 278.585 222.634 278.585C222.38 278.585 222.14 278.538 221.913 278.444C221.686 278.351 221.485 278.224 221.312 278.064C221.151 277.89 221.024 277.69 220.931 277.463C220.838 277.236 220.791 276.995 220.791 276.742Z" fill="#F83673"/>
<g clip-path="url(#clip2_1209_44945)">
<circle cx="171.066" cy="265.512" r="2.22222" fill="#F83673"/>
</g>
<circle cx="152.604" cy="265.512" r="0.854222" fill="#F83673"/>
<g clip-path="url(#clip3_1209_44945)">
<circle cx="166.455" cy="268.177" r="2.22222" fill="#F83673"/>
</g>
<circle cx="157.206" cy="268.177" r="1.37778" fill="#F83673"/>
<g clip-path="url(#clip4_1209_44945)">
<circle cx="171.066" cy="270.839" r="2.22222" fill="#F83673"/>
</g>
<circle cx="152.604" cy="270.839" r="0.854222" fill="#F83673"/>
<g clip-path="url(#clip5_1209_44945)">
<circle cx="166.455" cy="273.5" r="2.22222" fill="#F83673"/>
</g>
<circle cx="166.455" cy="262.852" r="1.37778" fill="#F83673"/>
<circle cx="157.206" cy="273.5" r="1.37778" fill="#F83673"/>
<circle cx="157.206" cy="262.852" r="0.854222" fill="#F83673"/>
<g clip-path="url(#clip6_1209_44945)">
<circle cx="171.066" cy="276.163" r="2.22222" fill="#F83673"/>
</g>
<circle cx="152.604" cy="276.163" r="0.854222" fill="#F83673"/>
<g clip-path="url(#clip7_1209_44945)">
<circle cx="166.455" cy="278.825" r="2.22222" fill="#F83673"/>
</g>
<circle cx="157.206" cy="278.825" r="1.37778" fill="#F83673"/>
<g clip-path="url(#clip8_1209_44945)">
<circle cx="161.845" cy="281.487" r="2.22222" fill="#F83673"/>
</g>
<g clip-path="url(#clip9_1209_44945)">
<circle cx="161.835" cy="276.163" r="2.22222" fill="#F83673"/>
</g>
<circle cx="161.835" cy="265.515" r="1.37778" fill="#F83673"/>
<g clip-path="url(#clip10_1209_44945)">
<circle cx="161.835" cy="270.839" r="2.22222" fill="#F83673"/>
</g>
<circle cx="161.835" cy="260.191" r="0.854222" fill="#F83673"/>
</g>
<path d="M123.837 310V306.828H124.916C125.375 306.828 125.817 306.772 126.242 306.659C126.667 306.546 127.044 306.373 127.373 306.139C127.711 305.905 127.975 305.606 128.166 305.242C128.357 304.878 128.452 304.449 128.452 303.955C128.452 303.288 128.3 302.75 127.997 302.343C127.694 301.927 127.282 301.628 126.762 301.446C126.242 301.255 125.666 301.16 125.033 301.16H122.394V310H123.837ZM124.994 302.382C125.401 302.382 125.744 302.434 126.021 302.538C126.307 302.642 126.528 302.815 126.684 303.058C126.849 303.292 126.931 303.617 126.931 304.033C126.905 304.397 126.81 304.7 126.645 304.943C126.48 305.177 126.255 305.35 125.969 305.463C125.683 305.567 125.354 305.619 124.981 305.619H123.837V302.382H124.994ZM132.417 310.169C131.75 310.169 131.174 310.03 130.688 309.753C130.203 309.476 129.83 309.09 129.57 308.596C129.31 308.093 129.18 307.513 129.18 306.854C129.18 306.178 129.315 305.593 129.583 305.099C129.852 304.605 130.229 304.219 130.714 303.942C131.208 303.665 131.785 303.526 132.443 303.526C133.111 303.526 133.683 303.665 134.159 303.942C134.645 304.219 135.022 304.605 135.29 305.099C135.559 305.593 135.693 306.174 135.693 306.841C135.693 307.5 135.555 308.08 135.277 308.583C135.009 309.086 134.632 309.476 134.146 309.753C133.661 310.022 133.085 310.16 132.417 310.169ZM132.43 308.908C132.794 308.908 133.106 308.817 133.366 308.635C133.626 308.453 133.826 308.206 133.964 307.894C134.112 307.582 134.185 307.231 134.185 306.841C134.185 306.442 134.116 306.087 133.977 305.775C133.839 305.463 133.639 305.22 133.379 305.047C133.119 304.865 132.807 304.774 132.443 304.774C132.097 304.774 131.789 304.865 131.52 305.047C131.252 305.229 131.044 305.476 130.896 305.788C130.758 306.1 130.684 306.451 130.675 306.841C130.675 307.24 130.745 307.595 130.883 307.907C131.022 308.219 131.226 308.466 131.494 308.648C131.763 308.821 132.075 308.908 132.43 308.908ZM138.367 310V300.822L136.924 300.965V310H138.367ZM141.579 310V307.842L142.333 307.153L144.088 310H145.778L143.36 306.204L145.18 304.527L144.348 303.526L141.579 306.126V300.822L140.136 300.965V310H141.579ZM147.636 308.141C147.636 307.89 147.727 307.66 147.909 307.452C148.091 307.244 148.347 307.14 148.676 307.14H150.093V308.271C149.868 308.496 149.625 308.674 149.365 308.804C149.105 308.934 148.837 308.999 148.559 308.999C148.369 308.999 148.204 308.96 148.065 308.882C147.927 308.795 147.818 308.687 147.74 308.557C147.671 308.427 147.636 308.288 147.636 308.141ZM147.103 305.281C147.346 305.177 147.628 305.082 147.948 304.995C148.278 304.9 148.607 304.852 148.936 304.852C149.344 304.852 149.634 304.973 149.807 305.216C149.981 305.45 150.072 305.753 150.08 306.126V306.165H148.702C148.009 306.174 147.446 306.347 147.012 306.685C146.579 307.023 146.362 307.508 146.362 308.141C146.362 308.739 146.544 309.224 146.908 309.597C147.272 309.97 147.831 310.156 148.585 310.156C148.915 310.156 149.235 310.078 149.547 309.922C149.859 309.766 150.128 309.58 150.353 309.363L150.574 310H151.562V305.788C151.562 305.363 151.441 304.978 151.198 304.631C150.964 304.284 150.648 304.016 150.249 303.825C149.851 303.626 149.404 303.526 148.91 303.526C148.737 303.526 148.507 303.552 148.221 303.604C147.935 303.647 147.654 303.712 147.376 303.799C147.099 303.877 146.878 303.972 146.713 304.085L147.103 305.281ZM157.153 308.869L157.829 310H158.622V300.835L157.153 300.965V308.869ZM157.517 308.024C157.231 308.319 156.954 308.54 156.685 308.687C156.425 308.834 156.126 308.908 155.788 308.908C155.441 308.908 155.138 308.821 154.878 308.648C154.627 308.466 154.436 308.219 154.306 307.907C154.176 307.595 154.111 307.235 154.111 306.828C154.111 306.438 154.176 306.091 154.306 305.788C154.436 305.476 154.627 305.229 154.878 305.047C155.138 304.865 155.446 304.774 155.801 304.774C156.13 304.774 156.429 304.843 156.698 304.982C156.975 305.121 157.257 305.355 157.543 305.684L157.972 304.683C157.807 304.44 157.595 304.232 157.335 304.059C157.084 303.886 156.819 303.756 156.542 303.669C156.265 303.574 156.013 303.526 155.788 303.526C155.138 303.526 154.575 303.665 154.098 303.942C153.621 304.219 153.253 304.605 152.993 305.099C152.742 305.593 152.616 306.169 152.616 306.828C152.616 307.504 152.742 308.093 152.993 308.596C153.244 309.09 153.604 309.476 154.072 309.753C154.549 310.03 155.112 310.169 155.762 310.169C156.005 310.169 156.256 310.121 156.516 310.026C156.785 309.939 157.045 309.809 157.296 309.636C157.547 309.463 157.768 309.255 157.959 309.012L157.517 308.024ZM163.089 310.169C162.422 310.169 161.846 310.03 161.36 309.753C160.875 309.476 160.502 309.09 160.242 308.596C159.982 308.093 159.852 307.513 159.852 306.854C159.852 306.178 159.987 305.593 160.255 305.099C160.524 304.605 160.901 304.219 161.386 303.942C161.88 303.665 162.457 303.526 163.115 303.526C163.783 303.526 164.355 303.665 164.831 303.942C165.317 304.219 165.694 304.605 165.962 305.099C166.231 305.593 166.365 306.174 166.365 306.841C166.365 307.5 166.227 308.08 165.949 308.583C165.681 309.086 165.304 309.476 164.818 309.753C164.333 310.022 163.757 310.16 163.089 310.169ZM163.102 308.908C163.466 308.908 163.778 308.817 164.038 308.635C164.298 308.453 164.498 308.206 164.636 307.894C164.784 307.582 164.857 307.231 164.857 306.841C164.857 306.442 164.788 306.087 164.649 305.775C164.511 305.463 164.311 305.22 164.051 305.047C163.791 304.865 163.479 304.774 163.115 304.774C162.769 304.774 162.461 304.865 162.192 305.047C161.924 305.229 161.716 305.476 161.568 305.788C161.43 306.1 161.356 306.451 161.347 306.841C161.347 307.24 161.417 307.595 161.555 307.907C161.694 308.219 161.898 308.466 162.166 308.648C162.435 308.821 162.747 308.908 163.102 308.908ZM170.352 303.747H169.208V301.914L167.752 302.2V303.747H166.868L166.881 304.852H167.752V308.115C167.752 308.574 167.843 308.964 168.025 309.285C168.216 309.597 168.476 309.835 168.805 310C169.134 310.165 169.533 310.247 170.001 310.247C170.131 310.247 170.27 310.23 170.417 310.195C170.573 310.16 170.716 310.117 170.846 310.065C170.985 310.013 171.093 309.961 171.171 309.909L170.768 308.83C170.664 308.873 170.556 308.908 170.443 308.934C170.33 308.96 170.218 308.973 170.105 308.973C169.802 308.973 169.576 308.873 169.429 308.674C169.282 308.466 169.208 308.202 169.208 307.881V304.852H170.794L170.352 303.747ZM176.954 310V303.734L177.383 304.384L181.309 310H182.713V301.16H181.231V307.387L180.646 306.503L176.889 301.16H175.511V310H176.954ZM185.697 308.141C185.697 307.89 185.788 307.66 185.97 307.452C186.152 307.244 186.408 307.14 186.737 307.14H188.154V308.271C187.929 308.496 187.686 308.674 187.426 308.804C187.166 308.934 186.897 308.999 186.62 308.999C186.429 308.999 186.265 308.96 186.126 308.882C185.987 308.795 185.879 308.687 185.801 308.557C185.732 308.427 185.697 308.288 185.697 308.141ZM185.164 305.281C185.407 305.177 185.688 305.082 186.009 304.995C186.338 304.9 186.668 304.852 186.997 304.852C187.404 304.852 187.695 304.973 187.868 305.216C188.041 305.45 188.132 305.753 188.141 306.126V306.165H186.763C186.07 306.174 185.506 306.347 185.073 306.685C184.64 307.023 184.423 307.508 184.423 308.141C184.423 308.739 184.605 309.224 184.969 309.597C185.333 309.97 185.892 310.156 186.646 310.156C186.975 310.156 187.296 310.078 187.608 309.922C187.92 309.766 188.189 309.58 188.414 309.363L188.635 310H189.623V305.788C189.623 305.363 189.502 304.978 189.259 304.631C189.025 304.284 188.709 304.016 188.31 303.825C187.911 303.626 187.465 303.526 186.971 303.526C186.798 303.526 186.568 303.552 186.282 303.604C185.996 303.647 185.714 303.712 185.437 303.799C185.16 303.877 184.939 303.972 184.774 304.085L185.164 305.281ZM192.523 310V305.593C192.705 305.454 192.891 305.316 193.082 305.177C193.272 305.038 193.467 304.926 193.667 304.839C193.866 304.752 194.065 304.709 194.265 304.709C194.49 304.709 194.663 304.765 194.785 304.878C194.915 304.982 195.006 305.134 195.058 305.333C195.118 305.524 195.149 305.758 195.149 306.035V310H196.618V305.814C196.618 305.346 196.548 304.939 196.41 304.592C196.28 304.245 196.067 303.977 195.773 303.786C195.478 303.587 195.092 303.487 194.616 303.487C194.39 303.487 194.139 303.526 193.862 303.604C193.593 303.682 193.324 303.795 193.056 303.942C192.796 304.081 192.544 304.25 192.302 304.449L192.042 303.695H191.067V310H192.523ZM196.553 305.593C196.735 305.454 196.921 305.316 197.112 305.177C197.311 305.038 197.51 304.926 197.71 304.839C197.909 304.752 198.104 304.709 198.295 304.709C198.52 304.709 198.693 304.765 198.815 304.878C198.945 304.982 199.036 305.134 199.088 305.333C199.148 305.524 199.179 305.758 199.179 306.035V310H200.648V305.814C200.648 305.346 200.578 304.939 200.44 304.592C200.31 304.245 200.097 303.977 199.803 303.786C199.508 303.587 199.122 303.487 198.646 303.487C198.412 303.487 198.16 303.526 197.892 303.604C197.623 303.682 197.354 303.795 197.086 303.942C196.817 304.081 196.566 304.25 196.332 304.449L196.553 305.593ZM207.598 307.231V306.919C207.598 306.304 207.498 305.74 207.299 305.229C207.108 304.718 206.805 304.306 206.389 303.994C205.973 303.682 205.44 303.526 204.79 303.526C204.149 303.526 203.594 303.665 203.126 303.942C202.667 304.219 202.311 304.609 202.06 305.112C201.817 305.606 201.696 306.187 201.696 306.854C201.696 307.513 201.826 308.093 202.086 308.596C202.346 309.09 202.74 309.476 203.269 309.753C203.798 310.022 204.448 310.156 205.219 310.156C205.548 310.156 205.852 310.126 206.129 310.065C206.406 310.004 206.662 309.918 206.896 309.805C207.13 309.684 207.347 309.558 207.546 309.428L207.104 308.362C206.792 308.527 206.493 308.661 206.207 308.765C205.93 308.869 205.609 308.921 205.245 308.921C204.794 308.921 204.426 308.852 204.14 308.713C203.863 308.566 203.65 308.366 203.503 308.115C203.364 307.864 203.273 307.569 203.23 307.231H207.598ZM203.256 306.243C203.299 305.931 203.382 305.667 203.503 305.45C203.633 305.233 203.802 305.069 204.01 304.956C204.227 304.835 204.469 304.774 204.738 304.774C205.015 304.774 205.249 304.835 205.44 304.956C205.639 305.069 205.8 305.233 205.921 305.45C206.051 305.667 206.142 305.931 206.194 306.243H203.256ZM211.541 309.467C211.663 309.554 211.827 309.64 212.035 309.727C212.243 309.805 212.469 309.879 212.711 309.948C212.963 310.009 213.21 310.061 213.452 310.104C213.695 310.147 213.907 310.169 214.089 310.169C214.791 310.169 215.381 310.065 215.857 309.857C216.334 309.64 216.698 309.354 216.949 308.999C217.209 308.644 217.339 308.232 217.339 307.764C217.339 307.409 217.274 307.101 217.144 306.841C217.014 306.572 216.837 306.334 216.611 306.126C216.386 305.918 216.122 305.727 215.818 305.554C215.524 305.372 215.207 305.194 214.869 305.021C214.471 304.813 214.12 304.627 213.816 304.462C213.513 304.297 213.279 304.124 213.114 303.942C212.958 303.751 212.88 303.526 212.88 303.266C212.88 302.919 213.028 302.664 213.322 302.499C213.617 302.326 213.981 302.239 214.414 302.239C214.683 302.239 214.926 302.265 215.142 302.317C215.368 302.36 215.571 302.421 215.753 302.499C215.944 302.577 216.122 302.659 216.286 302.746L216.767 301.576C216.455 301.42 216.087 301.277 215.662 301.147C215.238 301.017 214.804 300.952 214.362 300.952C213.738 300.952 213.205 301.056 212.763 301.264C212.321 301.472 211.983 301.749 211.749 302.096C211.515 302.443 211.398 302.837 211.398 303.279C211.398 303.617 211.459 303.92 211.58 304.189C211.71 304.449 211.884 304.687 212.1 304.904C212.326 305.121 212.586 305.324 212.88 305.515C213.184 305.697 213.509 305.879 213.855 306.061C214.237 306.243 214.575 306.421 214.869 306.594C215.173 306.759 215.411 306.932 215.584 307.114C215.758 307.296 215.844 307.513 215.844 307.764C215.844 307.998 215.775 308.202 215.636 308.375C215.506 308.54 215.311 308.665 215.051 308.752C214.791 308.839 214.466 308.882 214.076 308.882C213.816 308.882 213.548 308.852 213.27 308.791C213.002 308.722 212.746 308.644 212.503 308.557C212.261 308.462 212.053 308.375 211.879 308.297L211.541 309.467ZM219.724 310.559C219.655 310.75 219.538 310.914 219.373 311.053C219.209 311.192 219.018 311.313 218.801 311.417C218.593 311.521 218.39 311.616 218.19 311.703L218.697 312.886C219.044 312.799 219.378 312.669 219.698 312.496C220.019 312.323 220.301 312.106 220.543 311.846C220.795 311.586 220.981 311.3 221.102 310.988L223.91 303.695H222.376L220.855 307.881L219.243 303.461L217.826 303.942L220.075 309.701L219.724 310.559ZM224.447 309.558C224.638 309.688 224.863 309.801 225.123 309.896C225.383 309.991 225.647 310.061 225.916 310.104C226.185 310.147 226.406 310.169 226.579 310.169C227.42 310.169 228.061 310 228.503 309.662C228.945 309.315 229.166 308.843 229.166 308.245C229.166 307.881 229.058 307.569 228.841 307.309C228.633 307.04 228.364 306.811 228.035 306.62C227.714 306.421 227.381 306.265 227.034 306.152C226.731 306.048 226.462 305.935 226.228 305.814C226.003 305.693 225.89 305.55 225.89 305.385C225.89 305.194 225.977 305.034 226.15 304.904C226.332 304.774 226.557 304.709 226.826 304.709C227.147 304.709 227.437 304.752 227.697 304.839C227.957 304.917 228.221 305.021 228.49 305.151L228.945 304.15C228.754 304.011 228.529 303.899 228.269 303.812C228.009 303.717 227.753 303.647 227.502 303.604C227.251 303.552 227.034 303.526 226.852 303.526C226.098 303.526 225.504 303.695 225.071 304.033C224.638 304.362 224.421 304.822 224.421 305.411C224.421 305.749 224.525 306.044 224.733 306.295C224.95 306.538 225.218 306.741 225.539 306.906C225.86 307.071 226.185 307.214 226.514 307.335C226.774 307.404 226.995 307.491 227.177 307.595C227.359 307.69 227.502 307.799 227.606 307.92C227.71 308.033 227.762 308.158 227.762 308.297C227.762 308.436 227.706 308.557 227.593 308.661C227.48 308.765 227.333 308.843 227.151 308.895C226.969 308.947 226.774 308.973 226.566 308.973C226.384 308.973 226.202 308.956 226.02 308.921C225.838 308.886 225.652 308.839 225.461 308.778C225.27 308.709 225.08 308.635 224.889 308.557L224.447 309.558ZM233.168 303.747H232.024V301.914L230.568 302.2V303.747H229.684L229.697 304.852H230.568V308.115C230.568 308.574 230.659 308.964 230.841 309.285C231.032 309.597 231.292 309.835 231.621 310C231.951 310.165 232.349 310.247 232.817 310.247C232.947 310.247 233.086 310.23 233.233 310.195C233.389 310.16 233.532 310.117 233.662 310.065C233.801 310.013 233.909 309.961 233.987 309.909L233.584 308.83C233.48 308.873 233.372 308.908 233.259 308.934C233.147 308.96 233.034 308.973 232.921 308.973C232.618 308.973 232.393 308.873 232.245 308.674C232.098 308.466 232.024 308.202 232.024 307.881V304.852H233.61L233.168 303.747ZM240.492 307.231V306.919C240.492 306.304 240.392 305.74 240.193 305.229C240.002 304.718 239.699 304.306 239.283 303.994C238.867 303.682 238.334 303.526 237.684 303.526C237.042 303.526 236.488 303.665 236.02 303.942C235.56 304.219 235.205 304.609 234.954 305.112C234.711 305.606 234.59 306.187 234.59 306.854C234.59 307.513 234.72 308.093 234.98 308.596C235.24 309.09 235.634 309.476 236.163 309.753C236.691 310.022 237.341 310.156 238.113 310.156C238.442 310.156 238.745 310.126 239.023 310.065C239.3 310.004 239.556 309.918 239.79 309.805C240.024 309.684 240.24 309.558 240.44 309.428L239.998 308.362C239.686 308.527 239.387 308.661 239.101 308.765C238.823 308.869 238.503 308.921 238.139 308.921C237.688 308.921 237.32 308.852 237.034 308.713C236.756 308.566 236.544 308.366 236.397 308.115C236.258 307.864 236.167 307.569 236.124 307.231H240.492ZM236.15 306.243C236.193 305.931 236.275 305.667 236.397 305.45C236.527 305.233 236.696 305.069 236.904 304.956C237.12 304.835 237.363 304.774 237.632 304.774C237.909 304.774 238.143 304.835 238.334 304.956C238.533 305.069 238.693 305.233 238.815 305.45C238.945 305.667 239.036 305.931 239.088 306.243H236.15ZM243.05 310V305.593C243.232 305.454 243.418 305.316 243.609 305.177C243.8 305.038 243.995 304.926 244.194 304.839C244.393 304.752 244.593 304.709 244.792 304.709C245.017 304.709 245.191 304.765 245.312 304.878C245.442 304.982 245.533 305.134 245.585 305.333C245.646 305.524 245.676 305.758 245.676 306.035V310H247.145V305.814C247.145 305.346 247.076 304.939 246.937 304.592C246.807 304.245 246.595 303.977 246.3 303.786C246.005 303.587 245.62 303.487 245.143 303.487C244.918 303.487 244.666 303.526 244.389 303.604C244.12 303.682 243.852 303.795 243.583 303.942C243.323 304.081 243.072 304.25 242.829 304.449L242.569 303.695H241.594V310H243.05ZM247.08 305.593C247.262 305.454 247.448 305.316 247.639 305.177C247.838 305.038 248.038 304.926 248.237 304.839C248.436 304.752 248.631 304.709 248.822 304.709C249.047 304.709 249.221 304.765 249.342 304.878C249.472 304.982 249.563 305.134 249.615 305.333C249.676 305.524 249.706 305.758 249.706 306.035V310H251.175V305.814C251.175 305.346 251.106 304.939 250.967 304.592C250.837 304.245 250.625 303.977 250.33 303.786C250.035 303.587 249.65 303.487 249.173 303.487C248.939 303.487 248.688 303.526 248.419 303.604C248.15 303.682 247.882 303.795 247.613 303.942C247.344 304.081 247.093 304.25 246.859 304.449L247.08 305.593Z" fill="#F83673"/>
<path d="M88.361 326.007H85.215L86.762 321.873L88.361 326.007ZM86.281 320.508L83.005 329.348H84.006L84.929 326.839H88.66L89.648 329.439L90.662 329.27L87.256 320.508H86.281ZM98.7451 328.334L99.1611 329.348H99.7851V320.183L98.7451 320.313V328.334ZM99.0441 327.71C98.8014 328.005 98.5414 328.234 98.2641 328.399C97.9867 328.564 97.6487 328.646 97.2501 328.646C96.8167 328.646 96.4527 328.542 96.1581 328.334C95.8721 328.117 95.6554 327.823 95.5081 327.45C95.3694 327.069 95.3001 326.64 95.3001 326.163C95.3001 325.704 95.3737 325.296 95.5211 324.941C95.6684 324.577 95.8894 324.287 96.1841 324.07C96.4787 323.853 96.8384 323.745 97.2631 323.745C97.6791 323.745 98.0214 323.827 98.2901 323.992C98.5674 324.148 98.8274 324.36 99.0701 324.629L99.3821 323.927C99.2087 323.71 99.0007 323.524 98.7581 323.368C98.5241 323.212 98.2771 323.091 98.0171 323.004C97.7571 322.917 97.5144 322.874 97.2891 322.874C96.6651 322.874 96.1234 323.017 95.6641 323.303C95.2134 323.58 94.8667 323.966 94.6241 324.46C94.3814 324.954 94.2601 325.526 94.2601 326.176C94.2601 326.835 94.3771 327.415 94.6111 327.918C94.8451 328.421 95.1874 328.815 95.6381 329.101C96.0887 329.378 96.6304 329.517 97.2631 329.517C97.4797 329.517 97.7181 329.478 97.9781 329.4C98.2381 329.322 98.4894 329.201 98.7321 329.036C98.9747 328.871 99.1871 328.676 99.3691 328.451L99.0441 327.71ZM104.157 329.517C103.533 329.526 102.995 329.387 102.545 329.101C102.094 328.806 101.747 328.412 101.505 327.918C101.271 327.415 101.154 326.835 101.154 326.176C101.162 325.535 101.288 324.967 101.531 324.473C101.782 323.979 102.137 323.589 102.597 323.303C103.065 323.017 103.615 322.874 104.248 322.874C104.88 322.874 105.422 323.013 105.873 323.29C106.323 323.567 106.67 323.953 106.913 324.447C107.155 324.941 107.277 325.53 107.277 326.215C107.277 326.856 107.147 327.424 106.887 327.918C106.635 328.412 106.276 328.802 105.808 329.088C105.348 329.374 104.798 329.517 104.157 329.517ZM104.183 328.646C104.616 328.646 104.984 328.538 105.288 328.321C105.591 328.104 105.821 327.814 105.977 327.45C106.141 327.086 106.224 326.679 106.224 326.228C106.224 325.751 106.146 325.327 105.99 324.954C105.842 324.581 105.621 324.287 105.327 324.07C105.041 323.853 104.677 323.745 104.235 323.745C103.81 323.745 103.446 323.853 103.143 324.07C102.839 324.287 102.605 324.577 102.441 324.941C102.285 325.305 102.202 325.712 102.194 326.163C102.194 326.631 102.267 327.056 102.415 327.437C102.562 327.81 102.783 328.104 103.078 328.321C103.381 328.538 103.749 328.646 104.183 328.646ZM109.527 329.348V324.876C109.735 324.659 109.956 324.469 110.19 324.304C110.433 324.131 110.671 323.992 110.905 323.888C111.139 323.784 111.352 323.732 111.542 323.732C111.82 323.732 112.032 323.797 112.179 323.927C112.327 324.048 112.431 324.222 112.491 324.447C112.552 324.664 112.582 324.919 112.582 325.214V329.348H113.609V325.071C113.609 324.646 113.544 324.269 113.414 323.94C113.284 323.602 113.081 323.338 112.803 323.147C112.526 322.948 112.162 322.848 111.711 322.848C111.469 322.848 111.209 322.896 110.931 322.991C110.654 323.086 110.385 323.216 110.125 323.381C109.874 323.546 109.649 323.732 109.449 323.94L109.267 323.043H108.513V329.348H109.527ZM113.492 324.876C113.7 324.659 113.921 324.469 114.155 324.304C114.389 324.131 114.623 323.992 114.857 323.888C115.091 323.784 115.308 323.732 115.507 323.732C115.776 323.732 115.984 323.797 116.131 323.927C116.279 324.048 116.383 324.222 116.443 324.447C116.513 324.664 116.547 324.919 116.547 325.214V329.348H117.574V325.071C117.574 324.646 117.509 324.269 117.379 323.94C117.249 323.602 117.041 323.338 116.755 323.147C116.478 322.948 116.118 322.848 115.676 322.848C115.434 322.848 115.169 322.896 114.883 322.991C114.606 323.086 114.337 323.216 114.077 323.381C113.826 323.546 113.601 323.732 113.401 323.94L113.492 324.876ZM119.932 327.554C119.932 327.225 120.04 326.939 120.257 326.696C120.482 326.445 120.807 326.319 121.232 326.319H122.883V327.762C122.666 328.013 122.406 328.23 122.103 328.412C121.8 328.594 121.466 328.685 121.102 328.685C120.833 328.685 120.612 328.629 120.439 328.516C120.266 328.403 120.136 328.26 120.049 328.087C119.971 327.905 119.932 327.727 119.932 327.554ZM119.685 324.2C119.919 324.105 120.175 324.009 120.452 323.914C120.738 323.819 121.085 323.771 121.492 323.771C121.995 323.771 122.35 323.914 122.558 324.2C122.775 324.486 122.883 324.846 122.883 325.279V325.63H121.258C120.582 325.63 120.032 325.799 119.607 326.137C119.182 326.466 118.97 326.939 118.97 327.554C118.97 328.109 119.148 328.572 119.503 328.945C119.858 329.318 120.404 329.504 121.141 329.504C121.488 329.504 121.834 329.422 122.181 329.257C122.536 329.092 122.814 328.91 123.013 328.711L123.143 329.348H123.923V325.006C123.923 324.59 123.819 324.222 123.611 323.901C123.403 323.58 123.113 323.329 122.74 323.147C122.376 322.965 121.951 322.874 121.466 322.874C121.293 322.874 121.072 322.9 120.803 322.952C120.534 322.995 120.27 323.06 120.01 323.147C119.759 323.225 119.551 323.32 119.386 323.433L119.685 324.2ZM126.54 329.348V323.043H125.5V329.348H126.54ZM126.007 321.795C126.197 321.795 126.362 321.73 126.501 321.6C126.639 321.461 126.709 321.292 126.709 321.093C126.709 320.894 126.635 320.729 126.488 320.599C126.349 320.46 126.184 320.391 125.994 320.391C125.794 320.391 125.63 320.46 125.5 320.599C125.37 320.729 125.305 320.894 125.305 321.093C125.305 321.292 125.37 321.461 125.5 321.6C125.63 321.73 125.799 321.795 126.007 321.795ZM129.18 329.348V324.876C129.388 324.659 129.613 324.469 129.856 324.304C130.098 324.131 130.345 323.992 130.597 323.888C130.857 323.784 131.091 323.732 131.299 323.732C131.732 323.732 132.027 323.871 132.183 324.148C132.347 324.425 132.43 324.781 132.43 325.214V329.348H133.457V325.084C133.457 324.651 133.387 324.269 133.249 323.94C133.11 323.602 132.893 323.338 132.599 323.147C132.313 322.948 131.94 322.848 131.481 322.848C131.203 322.848 130.917 322.896 130.623 322.991C130.328 323.086 130.051 323.216 129.791 323.381C129.531 323.546 129.301 323.732 129.102 323.94L128.92 323.043H128.166V329.348H129.18ZM139.095 329.348V324.876C139.303 324.659 139.528 324.469 139.771 324.304C140.013 324.131 140.26 323.992 140.512 323.888C140.772 323.784 141.006 323.732 141.214 323.732C141.647 323.732 141.942 323.871 142.098 324.148C142.262 324.425 142.345 324.781 142.345 325.214V329.348H143.372V325.084C143.372 324.651 143.302 324.269 143.164 323.94C143.025 323.602 142.808 323.338 142.514 323.147C142.228 322.948 141.855 322.848 141.396 322.848C141.118 322.848 140.832 322.896 140.538 322.991C140.243 323.086 139.966 323.216 139.706 323.381C139.446 323.546 139.216 323.732 139.017 323.94L138.835 323.043H138.081V329.348H139.095ZM145.742 327.554C145.742 327.225 145.85 326.939 146.067 326.696C146.292 326.445 146.617 326.319 147.042 326.319H148.693V327.762C148.476 328.013 148.216 328.23 147.913 328.412C147.609 328.594 147.276 328.685 146.912 328.685C146.643 328.685 146.422 328.629 146.249 328.516C146.075 328.403 145.945 328.26 145.859 328.087C145.781 327.905 145.742 327.727 145.742 327.554ZM145.495 324.2C145.729 324.105 145.984 324.009 146.262 323.914C146.548 323.819 146.894 323.771 147.302 323.771C147.804 323.771 148.16 323.914 148.368 324.2C148.584 324.486 148.693 324.846 148.693 325.279V325.63H147.068C146.392 325.63 145.841 325.799 145.417 326.137C144.992 326.466 144.78 326.939 144.78 327.554C144.78 328.109 144.957 328.572 145.313 328.945C145.668 329.318 146.214 329.504 146.951 329.504C147.297 329.504 147.644 329.422 147.991 329.257C148.346 329.092 148.623 328.91 148.823 328.711L148.953 329.348H149.733V325.006C149.733 324.59 149.629 324.222 149.421 323.901C149.213 323.58 148.922 323.329 148.55 323.147C148.186 322.965 147.761 322.874 147.276 322.874C147.102 322.874 146.881 322.9 146.613 322.952C146.344 322.995 146.08 323.06 145.82 323.147C145.568 323.225 145.36 323.32 145.196 323.433L145.495 324.2ZM152.323 329.348V324.876C152.531 324.659 152.752 324.469 152.986 324.304C153.229 324.131 153.467 323.992 153.701 323.888C153.935 323.784 154.148 323.732 154.338 323.732C154.616 323.732 154.828 323.797 154.975 323.927C155.123 324.048 155.227 324.222 155.287 324.447C155.348 324.664 155.378 324.919 155.378 325.214V329.348H156.405V325.071C156.405 324.646 156.34 324.269 156.21 323.94C156.08 323.602 155.877 323.338 155.599 323.147C155.322 322.948 154.958 322.848 154.507 322.848C154.265 322.848 154.005 322.896 153.727 322.991C153.45 323.086 153.181 323.216 152.921 323.381C152.67 323.546 152.445 323.732 152.245 323.94L152.063 323.043H151.309V329.348H152.323ZM156.288 324.876C156.496 324.659 156.717 324.469 156.951 324.304C157.185 324.131 157.419 323.992 157.653 323.888C157.887 323.784 158.104 323.732 158.303 323.732C158.572 323.732 158.78 323.797 158.927 323.927C159.075 324.048 159.179 324.222 159.239 324.447C159.309 324.664 159.343 324.919 159.343 325.214V329.348H160.37V325.071C160.37 324.646 160.305 324.269 160.175 323.94C160.045 323.602 159.837 323.338 159.551 323.147C159.274 322.948 158.914 322.848 158.472 322.848C158.23 322.848 157.965 322.896 157.679 322.991C157.402 323.086 157.133 323.216 156.873 323.381C156.622 323.546 156.397 323.732 156.197 323.94L156.288 324.876ZM167.187 326.358V326.267C167.187 325.634 167.092 325.062 166.901 324.551C166.719 324.04 166.429 323.632 166.03 323.329C165.64 323.026 165.129 322.874 164.496 322.874C163.872 322.874 163.339 323.017 162.897 323.303C162.464 323.58 162.13 323.966 161.896 324.46C161.671 324.954 161.558 325.526 161.558 326.176C161.558 326.835 161.679 327.415 161.922 327.918C162.165 328.421 162.529 328.811 163.014 329.088C163.508 329.365 164.123 329.504 164.86 329.504C165.172 329.504 165.458 329.474 165.718 329.413C165.987 329.361 166.234 329.287 166.459 329.192C166.693 329.088 166.91 328.98 167.109 328.867L166.771 328.113C166.442 328.278 166.13 328.412 165.835 328.516C165.54 328.611 165.211 328.659 164.847 328.659C164.327 328.659 163.907 328.559 163.586 328.36C163.265 328.161 163.027 327.888 162.871 327.541C162.724 327.194 162.637 326.8 162.611 326.358H167.187ZM162.637 325.656C162.68 325.275 162.771 324.941 162.91 324.655C163.057 324.369 163.257 324.148 163.508 323.992C163.768 323.827 164.084 323.745 164.457 323.745C164.821 323.745 165.12 323.827 165.354 323.992C165.597 324.148 165.783 324.369 165.913 324.655C166.043 324.941 166.13 325.275 166.173 325.656H162.637ZM171.144 328.984C171.318 329.097 171.526 329.192 171.768 329.27C172.011 329.348 172.258 329.409 172.509 329.452C172.769 329.495 172.986 329.517 173.159 329.517C173.983 329.517 174.607 329.357 175.031 329.036C175.465 328.707 175.681 328.256 175.681 327.684C175.681 327.337 175.577 327.038 175.369 326.787C175.161 326.536 174.897 326.319 174.576 326.137C174.256 325.955 173.922 325.808 173.575 325.695C173.159 325.556 172.813 325.405 172.535 325.24C172.258 325.067 172.115 324.863 172.106 324.629C172.106 324.36 172.228 324.139 172.47 323.966C172.722 323.793 173.042 323.706 173.432 323.706C173.796 323.706 174.113 323.754 174.381 323.849C174.65 323.944 174.888 324.044 175.096 324.148L175.421 323.433C175.265 323.32 175.066 323.225 174.823 323.147C174.581 323.06 174.334 322.995 174.082 322.952C173.84 322.9 173.627 322.874 173.445 322.874C172.726 322.874 172.154 323.034 171.729 323.355C171.305 323.667 171.092 324.105 171.092 324.668C171.092 324.997 171.196 325.283 171.404 325.526C171.612 325.76 171.872 325.959 172.184 326.124C172.505 326.28 172.83 326.414 173.159 326.527C173.445 326.622 173.705 326.731 173.939 326.852C174.173 326.965 174.36 327.095 174.498 327.242C174.646 327.389 174.719 327.558 174.719 327.749C174.719 327.94 174.654 328.109 174.524 328.256C174.394 328.395 174.212 328.503 173.978 328.581C173.753 328.65 173.484 328.685 173.172 328.685C172.973 328.685 172.774 328.668 172.574 328.633C172.375 328.59 172.18 328.538 171.989 328.477C171.807 328.408 171.63 328.334 171.456 328.256L171.144 328.984ZM178.176 330.375C178.107 330.566 178.007 330.726 177.877 330.856C177.747 330.986 177.596 331.094 177.422 331.181C177.249 331.276 177.058 331.372 176.85 331.467L177.162 332.208C177.466 332.139 177.747 332.03 178.007 331.883C178.267 331.744 178.493 331.567 178.683 331.35C178.883 331.142 179.03 330.908 179.125 330.648L181.894 323.043H180.867L179.06 327.918L177.149 322.848L176.239 323.238L178.579 329.309L178.176 330.375ZM182.519 328.984C182.693 329.097 182.901 329.192 183.143 329.27C183.386 329.348 183.633 329.409 183.884 329.452C184.144 329.495 184.361 329.517 184.534 329.517C185.358 329.517 185.982 329.357 186.406 329.036C186.84 328.707 187.056 328.256 187.056 327.684C187.056 327.337 186.952 327.038 186.744 326.787C186.536 326.536 186.272 326.319 185.951 326.137C185.631 325.955 185.297 325.808 184.95 325.695C184.534 325.556 184.188 325.405 183.91 325.24C183.633 325.067 183.49 324.863 183.481 324.629C183.481 324.36 183.603 324.139 183.845 323.966C184.097 323.793 184.417 323.706 184.807 323.706C185.171 323.706 185.488 323.754 185.756 323.849C186.025 323.944 186.263 324.044 186.471 324.148L186.796 323.433C186.64 323.32 186.441 323.225 186.198 323.147C185.956 323.06 185.709 322.995 185.457 322.952C185.215 322.9 185.002 322.874 184.82 322.874C184.101 322.874 183.529 323.034 183.104 323.355C182.68 323.667 182.467 324.105 182.467 324.668C182.467 324.997 182.571 325.283 182.779 325.526C182.987 325.76 183.247 325.959 183.559 326.124C183.88 326.28 184.205 326.414 184.534 326.527C184.82 326.622 185.08 326.731 185.314 326.852C185.548 326.965 185.735 327.095 185.873 327.242C186.021 327.389 186.094 327.558 186.094 327.749C186.094 327.94 186.029 328.109 185.899 328.256C185.769 328.395 185.587 328.503 185.353 328.581C185.128 328.65 184.859 328.685 184.547 328.685C184.348 328.685 184.149 328.668 183.949 328.633C183.75 328.59 183.555 328.538 183.364 328.477C183.182 328.408 183.005 328.334 182.831 328.256L182.519 328.984ZM190.786 323.147H189.642V321.262L188.602 321.548V323.147H187.692L187.705 323.927H188.602V327.71C188.602 328.109 188.676 328.442 188.823 328.711C188.971 328.98 189.179 329.188 189.447 329.335C189.716 329.474 190.028 329.543 190.383 329.543C190.505 329.543 190.626 329.53 190.747 329.504C190.869 329.487 190.981 329.461 191.085 329.426C191.189 329.391 191.276 329.357 191.345 329.322L191.098 328.516C191.038 328.542 190.951 328.572 190.838 328.607C190.734 328.633 190.63 328.646 190.526 328.646C190.214 328.646 189.989 328.546 189.85 328.347C189.712 328.148 189.642 327.888 189.642 327.567V323.927H191.111L190.786 323.147ZM197.706 326.358V326.267C197.706 325.634 197.611 325.062 197.42 324.551C197.238 324.04 196.948 323.632 196.549 323.329C196.159 323.026 195.648 322.874 195.015 322.874C194.391 322.874 193.858 323.017 193.416 323.303C192.983 323.58 192.649 323.966 192.415 324.46C192.19 324.954 192.077 325.526 192.077 326.176C192.077 326.835 192.199 327.415 192.441 327.918C192.684 328.421 193.048 328.811 193.533 329.088C194.027 329.365 194.643 329.504 195.379 329.504C195.691 329.504 195.977 329.474 196.237 329.413C196.506 329.361 196.753 329.287 196.978 329.192C197.212 329.088 197.429 328.98 197.628 328.867L197.29 328.113C196.961 328.278 196.649 328.412 196.354 328.516C196.06 328.611 195.73 328.659 195.366 328.659C194.846 328.659 194.426 328.559 194.105 328.36C193.785 328.161 193.546 327.888 193.39 327.541C193.243 327.194 193.156 326.8 193.13 326.358H197.706ZM193.156 325.656C193.2 325.275 193.291 324.941 193.429 324.655C193.577 324.369 193.776 324.148 194.027 323.992C194.287 323.827 194.604 323.745 194.976 323.745C195.34 323.745 195.639 323.827 195.873 323.992C196.116 324.148 196.302 324.369 196.432 324.655C196.562 324.941 196.649 325.275 196.692 325.656H193.156ZM199.969 329.348V324.876C200.177 324.659 200.398 324.469 200.632 324.304C200.874 324.131 201.113 323.992 201.347 323.888C201.581 323.784 201.793 323.732 201.984 323.732C202.261 323.732 202.473 323.797 202.621 323.927C202.768 324.048 202.872 324.222 202.933 324.447C202.993 324.664 203.024 324.919 203.024 325.214V329.348H204.051V325.071C204.051 324.646 203.986 324.269 203.856 323.94C203.726 323.602 203.522 323.338 203.245 323.147C202.967 322.948 202.603 322.848 202.153 322.848C201.91 322.848 201.65 322.896 201.373 322.991C201.095 323.086 200.827 323.216 200.567 323.381C200.315 323.546 200.09 323.732 199.891 323.94L199.709 323.043H198.955V329.348H199.969ZM203.934 324.876C204.142 324.659 204.363 324.469 204.597 324.304C204.831 324.131 205.065 323.992 205.299 323.888C205.533 323.784 205.749 323.732 205.949 323.732C206.217 323.732 206.425 323.797 206.573 323.927C206.72 324.048 206.824 324.222 206.885 324.447C206.954 324.664 206.989 324.919 206.989 325.214V329.348H208.016V325.071C208.016 324.646 207.951 324.269 207.821 323.94C207.691 323.602 207.483 323.338 207.197 323.147C206.919 322.948 206.56 322.848 206.118 322.848C205.875 322.848 205.611 322.896 205.325 322.991C205.047 323.086 204.779 323.216 204.519 323.381C204.267 323.546 204.042 323.732 203.843 323.94L203.934 324.876ZM212.03 323.927H212.966V329.348H214.006V323.927H215.501L215.163 323.147H214.006V322.224C214.006 321.912 214.071 321.656 214.201 321.457C214.339 321.249 214.569 321.145 214.89 321.145C214.976 321.145 215.076 321.162 215.189 321.197C215.301 321.223 215.392 321.249 215.462 321.275L215.696 320.456C215.635 320.413 215.553 320.374 215.449 320.339C215.345 320.304 215.232 320.278 215.111 320.261C214.989 320.235 214.868 320.222 214.747 320.222C214.383 320.222 214.066 320.304 213.798 320.469C213.529 320.625 213.321 320.85 213.174 321.145C213.035 321.431 212.966 321.773 212.966 322.172V323.147H212.017L212.03 323.927ZM219.125 329.517C218.501 329.526 217.964 329.387 217.513 329.101C217.063 328.806 216.716 328.412 216.473 327.918C216.239 327.415 216.122 326.835 216.122 326.176C216.131 325.535 216.257 324.967 216.499 324.473C216.751 323.979 217.106 323.589 217.565 323.303C218.033 323.017 218.584 322.874 219.216 322.874C219.849 322.874 220.391 323.013 220.841 323.29C221.292 323.567 221.639 323.953 221.881 324.447C222.124 324.941 222.245 325.53 222.245 326.215C222.245 326.856 222.115 327.424 221.855 327.918C221.604 328.412 221.244 328.802 220.776 329.088C220.317 329.374 219.767 329.517 219.125 329.517ZM219.151 328.646C219.585 328.646 219.953 328.538 220.256 328.321C220.56 328.104 220.789 327.814 220.945 327.45C221.11 327.086 221.192 326.679 221.192 326.228C221.192 325.751 221.114 325.327 220.958 324.954C220.811 324.581 220.59 324.287 220.295 324.07C220.009 323.853 219.645 323.745 219.203 323.745C218.779 323.745 218.415 323.853 218.111 324.07C217.808 324.287 217.574 324.577 217.409 324.941C217.253 325.305 217.171 325.712 217.162 326.163C217.162 326.631 217.236 327.056 217.383 327.437C217.531 327.81 217.752 328.104 218.046 328.321C218.35 328.538 218.718 328.646 219.151 328.646ZM224.496 329.348V325.006C224.687 324.815 224.908 324.633 225.159 324.46C225.41 324.287 225.675 324.144 225.952 324.031C226.238 323.918 226.502 323.862 226.745 323.862L226.498 323.043C226.273 323.043 226.026 323.099 225.757 323.212C225.497 323.325 225.246 323.463 225.003 323.628C224.769 323.784 224.57 323.927 224.405 324.057L224.093 323.043H223.482V329.348H224.496Z" fill="#010008"/>
<path d="M249.783 321.209C249.138 321.209 248.517 321.29 248.264 321.359C247.896 321.462 247.804 321.623 247.735 321.957L246.274 328.697C246.251 328.835 246.228 328.95 246.228 329.065C246.228 329.399 246.447 329.617 246.803 329.617C247.195 329.617 247.356 329.364 247.436 328.973L247.85 327.052C248.138 327.087 248.517 327.121 249.058 327.121C251.439 327.121 252.923 325.833 252.923 323.889C252.923 322.187 251.738 321.209 249.783 321.209ZM249 326.017C248.632 326.017 248.345 326.006 248.08 325.971L248.851 322.394C249.092 322.359 249.449 322.313 249.817 322.313C251.082 322.313 251.727 322.911 251.727 323.901C251.727 325.166 250.806 326.017 249 326.017L249 326.017Z" fill="#010008"/>
<path d="M287.261 327.398C287.066 327.398 286.939 327.513 286.698 327.777C286.272 328.214 286.007 328.456 285.674 328.456C285.375 328.456 285.214 328.214 285.214 327.823C285.214 327.605 285.26 327.34 285.317 327.053L285.743 325.051H287.02C287.423 325.051 287.664 324.821 287.664 324.407C287.664 324.177 287.515 324.004 287.17 324.004H285.973L286.18 323.073C286.203 322.935 286.226 322.808 286.226 322.693C286.226 322.371 286.007 322.141 285.651 322.141C285.271 322.141 285.099 322.394 285.018 322.785L284.754 324.004H284.213C283.799 324.004 283.557 324.234 283.557 324.648C283.557 324.878 283.718 325.051 284.063 325.051H284.535L284.109 327.029C284.063 327.248 284.006 327.604 284.006 327.973C284.006 328.904 284.489 329.583 285.524 329.583C286.122 329.583 286.652 329.284 287.054 328.927C287.445 328.582 287.733 328.157 287.733 327.88C287.733 327.616 287.526 327.398 287.261 327.398Z" fill="#010008"/>
<path d="M260.803 321.888C260.803 321.554 260.573 321.335 260.216 321.335C259.837 321.335 259.664 321.589 259.584 321.98L258.146 328.663C258.111 328.801 258.088 328.916 258.088 329.031C258.088 329.365 258.318 329.583 258.664 329.583C259.055 329.583 259.227 329.33 259.308 328.939L260.746 322.256C260.768 322.118 260.803 322.003 260.803 321.888Z" fill="#010008"/>
<path d="M281.337 323.889C279.497 323.889 278.243 325.718 278.243 327.455C278.243 327.488 278.243 327.52 278.244 327.552C277.956 327.99 277.587 328.445 277.334 328.445C277.15 328.445 277.081 328.272 277.081 328.008C277.081 327.686 277.173 327.145 277.276 326.673L278.231 322.256C278.254 322.118 278.277 322.003 278.277 321.888C278.277 321.554 278.059 321.335 277.702 321.335C277.311 321.335 277.15 321.589 277.069 321.98L276.552 324.372C276.275 324.085 275.873 323.889 275.263 323.889C274.041 323.889 272.811 324.83 272.332 326.273C271.804 327.638 271.333 328.445 270.961 328.445C270.823 328.445 270.742 328.33 270.742 328.134C270.742 327.559 271.064 326.156 271.202 325.477C271.248 325.224 271.271 325.12 271.271 324.971C271.271 324.464 270.432 323.866 269.339 323.866C268.075 323.866 266.931 324.666 266.357 325.856C265.504 327.362 264.722 328.445 264.335 328.445C264.162 328.445 264.105 328.226 264.059 328.019L263.771 326.432L265.531 324.994C265.692 324.856 265.899 324.66 265.899 324.407C265.899 324.097 265.692 323.89 265.382 323.89C265.152 323.89 264.956 324.028 264.761 324.189L262.115 326.374L263.001 322.256C263.024 322.118 263.058 322.003 263.058 321.888C263.058 321.554 262.828 321.335 262.472 321.335C262.092 321.335 261.92 321.589 261.839 321.98L260.401 328.663C260.367 328.801 260.344 328.916 260.344 329.031C260.344 329.365 260.574 329.584 260.919 329.584C261.31 329.584 261.482 329.33 261.563 328.939L261.747 328.077L262.828 327.202L263.093 328.537C263.196 329.066 263.473 329.584 264.186 329.584C264.895 329.584 265.453 328.936 266.013 328.06C266.182 328.977 266.835 329.584 267.74 329.584C268.649 329.584 269.27 329.043 269.673 328.318V328.341C269.673 329.089 270.053 329.584 270.72 329.584C271.323 329.584 271.824 329.22 272.272 328.447C272.526 329.12 273.093 329.584 273.883 329.584C274.815 329.584 275.482 329.02 275.908 328.238V328.307C275.908 329.135 276.322 329.584 277 329.584C277.6 329.584 278.109 329.236 278.544 328.67C278.874 329.236 279.467 329.584 280.267 329.584C282.108 329.584 283.362 327.755 283.362 326.006C283.362 324.775 282.614 323.889 281.337 323.889ZM269.868 326.224C269.534 327.662 268.821 328.479 268.016 328.479C267.475 328.479 267.176 328.065 267.176 327.444C267.176 326.225 268.062 324.913 269.246 324.913C269.603 324.913 269.879 325.017 270.121 325.166L269.868 326.224ZM276.276 325.615C275.907 327.306 275.068 328.48 274.147 328.48C273.641 328.48 273.342 328.088 273.342 327.444C273.342 326.213 274.194 324.937 275.332 324.937C275.769 324.937 276.103 325.086 276.345 325.282L276.276 325.615ZM280.406 328.479C279.738 328.479 279.462 327.996 279.462 327.386C279.462 326.271 280.233 324.994 281.199 324.994C281.866 324.994 282.143 325.477 282.143 326.086C282.142 327.214 281.372 328.479 280.406 328.479Z" fill="#010008"/>
<path d="M255.788 323.889C253.947 323.889 252.693 325.718 252.693 327.455C252.693 328.697 253.441 329.583 254.718 329.583C256.558 329.583 257.812 327.754 257.812 326.006C257.812 324.775 257.064 323.889 255.788 323.889ZM254.856 328.479C254.189 328.479 253.913 327.996 253.913 327.386C253.913 326.27 254.683 324.994 255.65 324.994C256.317 324.994 256.593 325.477 256.593 326.086C256.593 327.214 255.822 328.479 254.856 328.479Z" fill="#010008"/>
<path d="M238.223 321.923C239.395 321.923 240.345 321.37 240.345 320.688C240.345 320.006 239.395 319.453 238.223 319.453C237.051 319.453 236.1 320.006 236.1 320.688C236.1 321.37 237.051 321.923 238.223 321.923Z" fill="#E6007A"/>
<path d="M238.223 331.226C239.395 331.226 240.345 330.673 240.345 329.991C240.345 329.309 239.395 328.756 238.223 328.756C237.051 328.756 236.1 329.309 236.1 329.991C236.1 330.673 237.051 331.226 238.223 331.226Z" fill="#E6007A"/>
<path d="M235.264 323.631C235.85 322.616 235.847 321.517 235.256 321.176C234.665 320.835 233.711 321.381 233.125 322.396C232.539 323.411 232.543 324.511 233.133 324.852C233.724 325.193 234.678 324.646 235.264 323.631Z" fill="#E6007A"/>
<path d="M243.321 328.283C243.907 327.267 243.903 326.168 243.312 325.827C242.722 325.486 241.768 326.033 241.182 327.048C240.595 328.063 240.599 329.162 241.19 329.503C241.781 329.844 242.735 329.298 243.321 328.283Z" fill="#E6007A"/>
<path d="M235.256 329.503C235.847 329.162 235.85 328.063 235.264 327.047C234.678 326.032 233.724 325.486 233.133 325.827C232.543 326.168 232.539 327.267 233.125 328.282C233.711 329.298 234.665 329.844 235.256 329.503Z" fill="#E6007A"/>
<path d="M243.312 324.852C243.903 324.511 243.907 323.411 243.321 322.396C242.735 321.381 241.781 320.834 241.19 321.175C240.599 321.517 240.595 322.616 241.182 323.631C241.768 324.646 242.722 325.193 243.312 324.852Z" fill="#E6007A"/>
<defs>
<filter id="filter0_f_1209_44945" x="-19.9146" y="-248.908" width="679.863" height="604.7" filterUnits="userSpaceOnUse" color-interpolation-filters="sRGB">
<feFlood flood-opacity="0" result="BackgroundImageFix"/>
<feBlend mode="normal" in="SourceGraphic" in2="BackgroundImageFix" result="shape"/>
<feGaussianBlur stdDeviation="120" result="effect1_foregroundBlur_1209_44945"/>
</filter>
<filter id="filter1_f_1209_44945" x="-278.968" y="-281.085" width="666.274" height="631.331" filterUnits="userSpaceOnUse" color-interpolation-filters="sRGB">
<feFlood flood-opacity="0" result="BackgroundImageFix"/>
<feBlend mode="normal" in="SourceGraphic" in2="BackgroundImageFix" result="shape"/>
<feGaussianBlur stdDeviation="120" result="effect1_foregroundBlur_1209_44945"/>
</filter>
<filter id="filter2_f_1209_44945" x="-163.352" y="-61.3506" width="770.769" height="802.374" filterUnits="userSpaceOnUse" color-interpolation-filters="sRGB">
<feFlood flood-opacity="0" result="BackgroundImageFix"/>
<feBlend mode="normal" in="SourceGraphic" in2="BackgroundImageFix" result="shape"/>
<feGaussianBlur stdDeviation="150" result="effect1_foregroundBlur_1209_44945"/>
</filter>
<filter id="filter3_f_1209_44945" x="-327.039" y="-111.039" width="783.522" height="749.095" filterUnits="userSpaceOnUse" color-interpolation-filters="sRGB">
<feFlood flood-opacity="0" result="BackgroundImageFix"/>
<feBlend mode="normal" in="SourceGraphic" in2="BackgroundImageFix" result="shape"/>
<feGaussianBlur stdDeviation="150" result="effect1_foregroundBlur_1209_44945"/>
</filter>
<clipPath id="clip0_1209_44945">
<rect width="375" height="375" fill="white"/>
</clipPath>
<clipPath id="clip1_1209_44945">
<rect width="77.037" height="30" fill="white" transform="translate(149 256)"/>
</clipPath>
<clipPath id="clip2_1209_44945">
<rect width="4.62963" height="4.62963" fill="white" transform="translate(168.751 263.197)"/>
</clipPath>
<clipPath id="clip3_1209_44945">
<rect width="4.62963" height="4.62963" fill="white" transform="translate(164.141 265.863)"/>
</clipPath>
<clipPath id="clip4_1209_44945">
<rect width="4.62963" height="4.62963" fill="white" transform="translate(168.751 268.524)"/>
</clipPath>
<clipPath id="clip5_1209_44945">
<rect width="4.62963" height="4.62963" fill="white" transform="translate(164.141 271.186)"/>
</clipPath>
<clipPath id="clip6_1209_44945">
<rect width="4.62963" height="4.62963" fill="white" transform="translate(168.751 273.848)"/>
</clipPath>
<clipPath id="clip7_1209_44945">
<rect width="4.62963" height="4.62963" fill="white" transform="translate(164.141 276.51)"/>
</clipPath>
<clipPath id="clip8_1209_44945">
<rect width="4.62963" height="4.62963" fill="white" transform="translate(159.53 279.172)"/>
</clipPath>
<clipPath id="clip9_1209_44945">
<rect width="4.62963" height="4.62963" fill="white" transform="translate(159.521 273.848)"/>
</clipPath>
<clipPath id="clip10_1209_44945">
<rect width="4.62963" height="4.62963" fill="white" transform="translate(159.521 268.524)"/>
</clipPath>
</defs>
</svg>
