<svg width="25" height="32" viewBox="0 0 25 32" fill="none" xmlns="http://www.w3.org/2000/svg">
<g clip-path="url(#clip0)">
<g clip-path="url(#clip1)">
<circle cx="22.1081" cy="10.1247" r="2.36538" fill="#0F0E0E"/>
</g>
<circle cx="2.45662" cy="10.1246" r="0.909254" fill="#0F0E0E"/>
<g clip-path="url(#clip2)">
<circle cx="17.2003" cy="12.9618" r="2.36538" fill="#0F0E0E"/>
</g>
<circle cx="7.35448" cy="12.9617" r="1.46654" fill="#0F0E0E"/>
<g clip-path="url(#clip3)">
<circle cx="22.1081" cy="15.7946" r="2.36538" fill="#0F0E0E"/>
</g>
<circle cx="2.45662" cy="15.7946" r="0.909254" fill="#0F0E0E"/>
<g clip-path="url(#clip4)">
<circle cx="17.2003" cy="18.6277" r="2.36538" fill="#0F0E0E"/>
</g>
<circle cx="17.2002" cy="7.29329" r="1.46654" fill="#0F0E0E"/>
<circle cx="7.35448" cy="18.6278" r="1.46654" fill="#0F0E0E"/>
<circle cx="7.35457" cy="7.29329" r="0.909254" fill="#0F0E0E"/>
<g clip-path="url(#clip5)">
<circle cx="22.1081" cy="21.4615" r="2.36538" fill="#0F0E0E"/>
</g>
<circle cx="2.45662" cy="21.4615" r="0.909254" fill="#0F0E0E"/>
<g clip-path="url(#clip6)">
<circle cx="17.2003" cy="24.2951" r="2.36538" fill="#0F0E0E"/>
</g>
<circle cx="7.35448" cy="24.2951" r="1.46654" fill="#0F0E0E"/>
<g clip-path="url(#clip7)">
<circle cx="12.2926" cy="27.1284" r="2.36538" fill="#0F0E0E"/>
</g>
<g clip-path="url(#clip8)">
<circle cx="12.2826" cy="21.4615" r="2.36538" fill="#0F0E0E"/>
</g>
<circle cx="12.2825" cy="10.1275" r="1.46654" fill="#0F0E0E"/>
<g clip-path="url(#clip9)">
<circle cx="12.2826" cy="15.7946" r="2.36538" fill="#0F0E0E"/>
</g>
<circle cx="12.2825" cy="4.46016" r="0.909254" fill="#0F0E0E"/>
</g>
<defs>
<clipPath id="clip0">
<rect width="82" height="31.9327" fill="white"/>
</clipPath>
<clipPath id="clip1">
<rect width="4.92788" height="4.92788" fill="white" transform="translate(19.6443 7.66061)"/>
</clipPath>
<clipPath id="clip2">
<rect width="4.92788" height="4.92788" fill="white" transform="translate(14.7363 10.4976)"/>
</clipPath>
<clipPath id="clip3">
<rect width="4.92788" height="4.92788" fill="white" transform="translate(19.6443 13.3306)"/>
</clipPath>
<clipPath id="clip4">
<rect width="4.92788" height="4.92788" fill="white" transform="translate(14.7363 16.1636)"/>
</clipPath>
<clipPath id="clip5">
<rect width="4.92788" height="4.92788" fill="white" transform="translate(19.6443 18.9977)"/>
</clipPath>
<clipPath id="clip6">
<rect width="4.92788" height="4.92788" fill="white" transform="translate(14.7363 21.8313)"/>
</clipPath>
<clipPath id="clip7">
<rect width="4.92788" height="4.92788" fill="white" transform="translate(9.82861 24.6647)"/>
</clipPath>
<clipPath id="clip8">
<rect width="4.92788" height="4.92788" fill="white" transform="translate(9.8186 18.9977)"/>
</clipPath>
<clipPath id="clip9">
<rect width="4.92788" height="4.92788" fill="white" transform="translate(9.8186 13.3306)"/>
</clipPath>
</defs>
</svg>
