<svg width="22" height="23" viewBox="0 0 22 23" fill="none" xmlns="http://www.w3.org/2000/svg">
<path d="M0 11.936C0 5.8609 4.92487 0.936035 11 0.936035C17.0751 0.936035 22 5.8609 22 11.936C22 18.0112 17.0751 22.936 11 22.936C4.92487 22.936 0 18.0112 0 11.936Z" fill="#F3992F"/>
<path d="M15.9614 10.0865C16.1872 8.57649 15.0376 7.76479 13.4655 7.2233L13.9755 5.17782L12.7304 4.86756L12.2339 6.85919C11.9066 6.77755 11.5704 6.70062 11.2363 6.62436L11.7364 4.61959L10.492 4.30933L9.98172 6.35414C9.71084 6.29247 9.44478 6.23151 9.18666 6.16729L9.1881 6.16085L7.47102 5.73207L7.13979 7.06196C7.13979 7.06196 8.06358 7.27372 8.04412 7.28675C8.54833 7.4126 8.63951 7.74638 8.62437 8.01093L8.04345 10.3412C8.07817 10.35 8.12321 10.3628 8.1729 10.3828C8.13136 10.3724 8.08716 10.3612 8.04129 10.3502L7.22703 13.6146C7.16541 13.7678 7.00901 13.9977 6.65648 13.9104C6.66896 13.9285 5.75149 13.6845 5.75149 13.6845L5.1333 15.1098L6.75366 15.5138C7.0551 15.5894 7.35049 15.6685 7.6414 15.7428L7.12615 17.8118L8.36985 18.122L8.88011 16.0751C9.21988 16.1673 9.54961 16.2524 9.8724 16.3326L9.36386 18.3699L10.6091 18.6802L11.1243 16.6151C13.2475 17.0169 14.844 16.8549 15.516 14.9345C16.0575 13.3883 15.489 12.4964 14.372 11.9148C15.1856 11.7272 15.7984 11.1921 15.9618 10.0867L15.9614 10.0864L15.9614 10.0865ZM13.1165 14.0758C12.7317 15.622 10.1284 14.7861 9.28433 14.5765L9.96808 11.8356C10.8121 12.0463 13.5187 12.4632 13.1166 14.0758H13.1165ZM13.5016 10.0641C13.1505 11.4706 10.9838 10.756 10.2809 10.5808L10.9008 8.09491C11.6037 8.27011 13.8672 8.59712 13.5017 10.0641H13.5016Z" fill="white"/>
</svg>
